<?xml version="1.0" encoding="UTF-8"?>
<svg version="1.1" xmlns="http://www.w3.org/2000/svg" width="1080" height="350">
<path d="M0 0 C8.99262588 7.36259797 12.19314972 16.7864921 13.5625 28.0625 C14.59446228 40.44604734 10.86639458 51.57344896 4.98828125 62.234375 C3.33741441 64.98110481 3.33741441 64.98110481 3.5625 68.0625 C5.12996782 69.50863805 5.12996782 69.50863805 7.1875 70.8125 C13.27687534 75.16667281 17.64518638 80.0933619 20.5625 87.0625 C20.5625 87.7225 20.5625 88.3825 20.5625 89.0625 C21.02398437 88.65 21.48546875 88.2375 21.9609375 87.8125 C24.14618195 85.87773811 26.35286224 83.9693489 28.5625 82.0625 C29.32175781 81.39089844 30.08101562 80.71929687 30.86328125 80.02734375 C42.33776489 70.2806056 54.93829367 65.70688573 69.875 65.6875 C70.85662109 65.66300781 71.83824219 65.63851562 72.84960938 65.61328125 C80.33768394 65.583547 87.73576141 66.63414974 93.5065918 71.80419922 C97.12686759 75.74997604 99.5625 79.5879899 99.5625 85.0625 C99.98917969 84.66160156 100.41585937 84.26070313 100.85546875 83.84765625 C119.26309525 67.10999999 139.64483624 58.6446622 164.60546875 58.84375 C174.08142135 59.36759338 185.17712106 60.8944682 192.3046875 67.734375 C194.923575 70.66652655 196.88919304 73.49694872 198.5625 77.0625 C199.01689453 75.39960938 199.01689453 75.39960938 199.48046875 73.703125 C199.90272126 72.23931631 200.32594999 70.77578898 200.75 69.3125 C201.04487305 68.21808594 201.04487305 68.21808594 201.34570312 67.1015625 C202.75151721 62.34342253 204.10477615 59.68745486 208.5625 57.0625 C211.69861359 56.14475042 214.40674881 56.22309143 217.5625 57.0625 C219.5703125 58.7421875 219.5703125 58.7421875 221.5 60.75 C223.40915946 62.73310621 223.40915946 62.73310621 225.5625 64.0625 C228.10963479 63.81492802 230.08991986 62.93922052 232.46484375 61.9921875 C241.62651037 59.2425322 253.40416343 59.89368431 262.15625 63.6484375 C266.49538405 66.19838316 270.04526038 69.491149 273.5625 73.0625 C274.2225 73.7225 274.8825 74.3825 275.5625 75.0625 C276.28953125 74.46501953 276.28953125 74.46501953 277.03125 73.85546875 C277.7015625 73.32566406 278.371875 72.79585938 279.0625 72.25 C279.7121875 71.72792969 280.361875 71.20585938 281.03125 70.66796875 C287.24290314 66.72817023 293.27247568 65.48182983 300.5625 65.5 C301.37759033 65.49806641 302.19268066 65.49613281 303.0324707 65.49414062 C311.61399151 65.71377431 318.85495713 68.49045255 326.5625 72.0625 C331.87669722 53.88492213 331.87669722 53.88492213 336.734375 35.58203125 C336.90976807 34.88822861 337.08516113 34.19442596 337.26586914 33.479599 C338.11463102 30.11318389 338.9511425 26.74429953 339.77148438 23.37084961 C343.93839819 6.68681495 343.93839819 6.68681495 348.45410156 3.89160156 C351.87082265 2.54801833 355.01265713 2.29634686 358.5625 3.0625 C361.495485 4.77839599 364.03229965 6.8014699 366.5625 9.0625 C366.70945312 7.95841797 366.70945312 7.95841797 366.859375 6.83203125 C368.40277188 -3.23996389 368.40277188 -3.23996389 372.5625 -6.9375 C377.20937128 -9.74030718 381.1046806 -10.3834747 386.42871094 -10.37329102 C387.57635925 -10.38840477 387.57635925 -10.38840477 388.74719238 -10.40382385 C391.26390405 -10.43220142 393.78001352 -10.43817559 396.296875 -10.44140625 C398.0579655 -10.45105613 399.81905362 -10.46114925 401.58013916 -10.47166443 C405.26865203 -10.48960148 408.95695443 -10.49518813 412.64550781 -10.4934082 C417.35088224 -10.49310387 422.05489307 -10.53401648 426.75994492 -10.58572483 C430.39762453 -10.61923784 434.03498004 -10.62516118 437.67279816 -10.62357903 C439.40621886 -10.6270981 441.13964987 -10.64024881 442.87291718 -10.66357613 C454.4848856 -10.80520205 462.03687616 -9.46379401 471.11328125 -1.77734375 C471.69464844 -1.14957031 472.27601563 -0.52179687 472.875 0.125 C473.51824219 0.805625 474.16148437 1.48625 474.82421875 2.1875 C475.39785156 2.80625 475.97148438 3.425 476.5625 4.0625 C477.42875 4.908125 478.295 5.75375 479.1875 6.625 C482.1319974 9.64698418 484.85229884 12.8307481 487.5625 16.0625 C491.00220309 13.2671217 494.16087123 10.54651416 497 7.125 C500.18559938 3.31782025 503.76794567 0.24402817 507.5625 -2.9375 C508.408125 -3.68 509.25375 -4.4225 510.125 -5.1875 C517.15158113 -10.23222492 523.34220033 -10.39320397 531.77734375 -10.37109375 C533.53190636 -10.37895653 533.53190636 -10.37895653 535.32191467 -10.38697815 C537.7887391 -10.39338442 540.25559413 -10.39207951 542.72241211 -10.38354492 C546.48411772 -10.37503593 550.24430358 -10.40381728 554.00585938 -10.43554688 C556.40885371 -10.43715915 558.81185073 -10.43658086 561.21484375 -10.43359375 C562.89174538 -10.45044472 562.89174538 -10.45044472 564.6025238 -10.46763611 C573.23167763 -10.39111853 579.27564595 -8.53947699 585.625 -2.5546875 C586.60146484 -1.64009766 586.60146484 -1.64009766 587.59765625 -0.70703125 C588.24605469 -0.08183594 588.89445313 0.54335938 589.5625 1.1875 C590.58150391 2.13689453 590.58150391 2.13689453 591.62109375 3.10546875 C595.26514359 6.55888419 595.26514359 6.55888419 596.5625 8.0625 C596.5625 8.7225 596.5625 9.3825 596.5625 10.0625 C597.2225 10.0625 597.8825 10.0625 598.5625 10.0625 C598.67207031 9.41023438 598.78164063 8.75796875 598.89453125 8.0859375 C600.6817053 -1.76531457 600.6817053 -1.76531457 603.5625 -5.9375 C608.57652168 -9.36312671 612.36039222 -10.54060484 618.47265625 -10.46875 C619.56845253 -10.47449036 619.56845253 -10.47449036 620.68638611 -10.48034668 C622.22005606 -10.48305126 623.75377329 -10.4757925 625.28735352 -10.45898438 C627.62296003 -10.43751875 629.95550241 -10.45884758 632.29101562 -10.484375 C633.78906922 -10.48173207 635.28712093 -10.47660779 636.78515625 -10.46875 C637.47593765 -10.47684692 638.16671906 -10.48494385 638.87843323 -10.49328613 C643.8704547 -10.397579 646.72585141 -9.07784019 650.5625 -5.9375 C653.68703458 -0.87359913 654.70574334 3.88323855 654.64428711 9.7734375 C654.6377562 10.67787598 654.63122528 11.58231445 654.62449646 12.51416016 C654.61306107 13.4788623 654.60162567 14.44356445 654.58984375 15.4375 C654.57720071 17.49479001 654.56483952 19.55208176 654.55273438 21.609375 C654.52789565 24.84185265 654.49987897 28.07423892 654.46655273 31.30664062 C654.43633942 34.43359967 654.41857552 37.56044152 654.40234375 40.6875 C654.38888412 41.65220215 654.3754245 42.6169043 654.36155701 43.61083984 C654.34442131 48.19779358 654.34204876 51.90962647 656.5625 56.0625 C658.04156892 56.08939216 659.52077483 56.10884621 661 56.125 C661.82371094 56.13660156 662.64742187 56.14820312 663.49609375 56.16015625 C665.55413938 56.29517348 665.55413938 56.29517348 666.5625 55.0625 C666.66964824 53.47328053 666.70872468 51.87940709 666.72021484 50.28662109 C666.73047699 49.26821136 666.74073914 48.24980164 666.75131226 47.20053101 C666.75861359 46.09021515 666.76591492 44.97989929 666.7734375 43.8359375 C666.80151885 41.50129523 666.83018339 39.16665991 666.859375 36.83203125 C666.9005685 33.13883755 666.93744081 29.44577191 666.96386719 25.75244141 C666.99153861 22.19666388 667.03742812 18.64148375 667.0859375 15.0859375 C667.08919037 13.98776703 667.09244324 12.88959656 667.09579468 11.75814819 C667.20951132 4.63768935 667.82751094 -0.56434683 672.4375 -6.25 C678.56794923 -11.11829792 685.79845407 -10.30976031 693.22705078 -10.30810547 C695.42429426 -10.31247375 697.6195182 -10.34881591 699.81640625 -10.38671875 C701.22915987 -10.39258911 702.64192293 -10.39655704 704.0546875 -10.3984375 C705.32683105 -10.40665527 706.59897461 -10.41487305 707.90966797 -10.42333984 C713.05283903 -9.73927953 716.71030629 -8.35362079 719.87120056 -4.23034668 C723.73219886 2.96647473 723.12407048 11.07526363 723.05859375 19.0078125 C723.05874902 20.54759794 723.06024255 22.08738377 723.06300354 23.62716675 C723.0643814 26.83967562 723.05193051 30.0517347 723.02905273 33.26416016 C723.00062148 37.36743275 723.0034265 41.46996183 723.01614285 45.57328987 C723.02311875 48.74761228 723.01528984 51.92176482 723.00288582 55.09606552 C722.99839323 56.60862449 722.9980152 58.12120184 723.00195122 59.63376236 C723.00488368 61.75117259 722.98826364 63.86758029 722.96655273 65.98486328 C722.96114975 67.18571564 722.95574677 68.38656799 722.95018005 69.62380981 C722.43140469 74.22530463 721.24209083 78.44289456 717.8125 81.75 C717.19375 82.3996875 717.19375 82.3996875 716.5625 83.0625 C716.70455374 87.04000475 719.61965942 90.72324275 721.5625 94.0625 C722.70918971 97.50256914 722.71060839 100.19606765 722.73950195 103.82543945 C722.74935875 104.8503952 722.74935875 104.8503952 722.75941467 105.89605713 C722.77911494 108.15596634 722.79080282 110.4158092 722.80078125 112.67578125 C722.80485678 113.44885305 722.8089323 114.22192486 722.81313133 115.01842308 C722.83397801 119.11017971 722.84828583 123.20190295 722.85766602 127.29370117 C722.86872837 131.51383771 722.90312976 135.73344668 722.94283772 139.9533968 C722.96901632 143.20398419 722.97735891 146.45444609 722.98094749 149.70512962 C722.98581017 151.26042431 722.99741519 152.81571351 723.01598549 154.37090492 C723.04040529 156.55148456 723.03940771 158.73070167 723.0324707 160.91137695 C723.03833694 162.15031204 723.04420319 163.38924713 723.05024719 164.66572571 C722.29153366 169.94956671 719.80710459 173.00004347 715.81665039 176.40649414 C711.9459573 178.37625265 708.74040854 178.62491535 704.49609375 178.55859375 C703.73958023 178.56004898 702.98306671 178.56150421 702.20362854 178.56300354 C700.61268237 178.56135145 699.02171906 178.54986769 697.4309082 178.52905273 C695.00337567 178.50004034 692.57802296 178.50846824 690.15039062 178.52148438 C688.59894778 178.51524757 687.04751179 178.50685708 685.49609375 178.49609375 C684.41466347 178.50049721 684.41466347 178.50049721 683.31138611 178.50498962 C677.94138047 178.40496637 674.65916841 177.15916841 670.875 173.375 C667.01822675 166.57973285 667.3268152 159.20248007 667.47265625 151.6328125 C667.49305494 149.43489783 667.51323079 147.23698108 667.53320312 145.0390625 C667.57690052 141.59560866 667.62554596 138.15230138 667.67895508 134.70898438 C667.72699753 131.37109886 667.75700517 128.03341595 667.78515625 124.6953125 C667.80691422 123.65891632 667.82867218 122.62252014 667.85108948 121.55471802 C667.85777145 120.59967377 667.86445343 119.64462952 667.87133789 118.66064453 C667.88403214 117.81873566 667.89672638 116.97682678 667.9098053 116.10940552 C667.79519455 115.4339267 667.6805838 114.75844788 667.5625 114.0625 C663.89384759 111.61673173 661.89049657 111.82642746 657.5625 112.0625 C656.9025 112.3925 656.2425 112.7225 655.5625 113.0625 C655.55441315 113.6689183 655.54632629 114.27533661 655.53799438 114.90013123 C655.45156229 121.24376471 655.35204432 127.58709951 655.24511719 133.93041992 C655.20696664 136.29397544 655.17209013 138.65758626 655.140625 141.02124023 C655.09467113 144.42972505 655.03672731 147.83783367 654.9765625 151.24609375 C654.96501129 152.29333115 654.95346008 153.34056854 654.94155884 154.41954041 C654.64679938 169.2594767 654.64679938 169.2594767 650.75 174.5 C644.38291442 179.04791827 637.44568256 178.43477928 629.95288086 178.43310547 C627.76661561 178.43746685 625.5823915 178.47378864 623.39648438 178.51171875 C615.92717577 178.57222255 609.92158401 178.43237305 603.5625 174.0625 C599.78604557 169.06783447 599.8750044 163.11861982 599.5625 157.0625 C598.89605469 157.76375 598.22960937 158.465 597.54296875 159.1875 C580.12403985 177.22830571 580.12403985 177.22830571 570.01643372 178.34338379 C569.11615952 178.35703979 568.21588531 178.3706958 567.28833008 178.38476562 C565.74566216 178.41358826 565.74566216 178.41358826 564.17182922 178.44299316 C563.06969589 178.45149292 561.96756256 178.45999268 560.83203125 178.46875 C559.68643234 178.48015015 558.54083344 178.49155029 557.36051941 178.5032959 C554.93724242 178.5221702 552.51391439 178.53525367 550.09057617 178.54296875 C546.40516191 178.56234145 542.72199846 178.62438823 539.03710938 178.6875 C536.67709651 178.70056548 534.31706777 178.7110643 531.95703125 178.71875 C530.86501907 178.7434436 529.7730069 178.76813721 528.64790344 178.7935791 C517.76881739 178.73104507 510.69863307 173.49769529 502.8125 166.5 C501.75537779 165.58183611 500.69808698 164.6638663 499.640625 163.74609375 C499.13337891 163.30120605 498.62613281 162.85631836 498.10351562 162.39794922 C496.54128488 161.04411491 494.95473679 159.72470683 493.359375 158.41015625 C491.30500349 156.68574664 489.43156548 154.97116433 487.5625 153.0625 C485.22682278 155.22665093 482.89429217 157.39416404 480.5625 159.5625 C479.87349609 160.2016333 479.18449219 160.8407666 478.47460938 161.49926758 C474.89970525 164.8290089 471.42036611 168.19892334 468.0625 171.75 C461.56634749 178.28806318 453.87742428 178.96108918 445.0501709 179.1295166 C440.80871462 179.13200857 436.5691996 179.09853623 432.328125 179.046875 C430.76112939 179.03015128 429.19413312 179.01348975 427.62713623 178.99688721 C424.35926911 178.96060879 421.09150319 178.9194128 417.82373047 178.87548828 C413.6420784 178.82027182 409.46048406 178.7838563 405.27859879 178.75185776 C402.0493676 178.7239824 398.82040034 178.68293426 395.591362 178.63825226 C394.04928535 178.61910523 392.50714072 178.60478462 390.96497345 178.59545135 C388.81116892 178.58109183 386.65839327 178.54817273 384.50488281 178.51074219 C382.6702951 178.48956329 382.6702951 178.48956329 380.79864502 178.46795654 C377.2874732 178.0280419 375.3918173 177.14469304 372.5625 175.0625 C369.52104755 171.04599368 367.44624705 166.85964697 367.40428162 161.83578491 C367.38959839 160.50643166 367.38959839 160.50643166 367.37461853 159.15022278 C367.36886307 158.17558578 367.3631076 157.20094879 367.35717773 156.19677734 C367.34727814 155.17236038 367.33737854 154.14794342 367.32717896 153.09248352 C367.29550245 149.69449197 367.27078222 146.29648643 367.24609375 142.8984375 C367.22552953 140.54716623 367.20453321 138.19589871 367.18312073 135.84463501 C367.12784507 129.64684066 367.07846004 123.44901265 367.03027344 117.25115967 C366.98009848 110.93043002 366.92439154 104.60974945 366.86914062 98.2890625 C366.76149187 85.88025022 366.66006185 73.47139539 366.5625 61.0625 C366.25120651 62.25494324 365.93991302 63.44738647 365.6191864 64.67596436 C364.44469351 69.17393761 363.26893134 73.67157831 362.09281921 78.16912842 C361.58757913 80.1019017 361.08266626 82.03476056 360.57810974 83.9677124 C357.30140478 96.51963428 353.97866869 109.05442822 350.46652222 121.54284668 C348.46673837 128.21649371 348.46673837 128.21649371 348.5625 135.0625 C349.7969563 136.53093822 351.03661341 137.99668596 352.33789062 139.40625 C354.57657146 142.43400335 354.83060245 145.90650395 355.3125 149.5625 C355.42464844 150.29597656 355.53679687 151.02945313 355.65234375 151.78515625 C355.86935795 153.21234377 356.07867679 154.64072831 356.27929688 156.0703125 C356.65917663 158.74257007 357.10787115 161.4020793 357.5625 164.0625 C356.9025 164.3925 356.2425 164.7225 355.5625 165.0625 C354.9025 163.0825 354.2425 161.1025 353.5625 159.0625 C353.0675 159.76375 352.5725 160.465 352.0625 161.1875 C345.7711614 168.42253939 336.05998015 174.53568888 326.26928711 175.22363281 C323.34606977 175.26944542 320.42354706 175.29781803 317.5 175.3125 C316.00049805 175.3434375 316.00049805 175.3434375 314.47070312 175.375 C300.01648612 175.45013563 288.41522274 169.87715854 277.8125 160.125 C268.53554319 150.39157932 262.56287847 137.49908166 262.4375 124 C262.47875 122.700625 262.52 121.40125 262.5625 120.0625 C261.69625 120.165625 260.83 120.26875 259.9375 120.375 C254.33800512 119.85652825 251.36708424 115.86708424 247.5625 112.0625 C242.43654398 109.49952199 234.97075096 110.67679903 229.5625 112 C227.08848887 112.98354022 225.85045 113.50798745 224.60557556 115.90527344 C224.39663162 116.63262695 224.18768768 117.35998047 223.97241211 118.109375 C223.61407791 119.31968384 223.61407791 119.31968384 223.24850464 120.55444336 C223.02212311 121.38210205 222.79574158 122.20976074 222.5625 123.0625 C222.3473172 123.81732666 222.1321344 124.57215332 221.91043091 125.34985352 C221.25506652 127.68661934 220.62697466 130.02942793 220.00390625 132.375 C219.53086986 134.1276773 219.05755407 135.88027922 218.58398438 137.6328125 C217.85256771 140.3504143 217.12338723 143.06855617 216.39916992 145.78808594 C215.69062627 148.4438658 214.97289811 151.09703253 214.25390625 153.75 C214.04335098 154.55026611 213.83279572 155.35053223 213.61585999 156.17504883 C211.830735 162.72228855 209.84649105 169.46128797 205.3125 174.625 C201.6938635 176.51655999 198.56751143 176.90446263 194.5625 176.0625 C190.1167517 174.01376806 188.43536507 171.69490769 186.25 167.375 C185.73824219 166.38113281 185.22648437 165.38726562 184.69921875 164.36328125 C184.32410156 163.60402344 183.94898438 162.84476563 183.5625 162.0625 C182.881875 163.135 182.20125 164.2075 181.5 165.3125 C178.30192332 169.80070989 174.73323411 171.87347471 169.5625 173.8125 C162.75775349 174.66309331 159.08597727 173.99266652 153.5625 170.0625 C151.625 167.3125 151.625 167.3125 150.5625 165.0625 C149.40234375 165.54396484 149.40234375 165.54396484 148.21875 166.03515625 C133.74080934 170.10321009 118.47229366 167.35023527 105.48046875 160.41796875 C99.75408572 157.0220013 95.47480593 153.4551379 91.5625 148.0625 C91.5625 147.4025 91.5625 146.7425 91.5625 146.0625 C90.9025 146.0625 90.2425 146.0625 89.5625 146.0625 C89.376875 146.7225 89.19125 147.3825 89 148.0625 C83.71866975 159.08440661 72.80720515 167.05492232 61.5625 171.0625 C47.47949879 175.28740036 34.0817583 175.61435946 20.8828125 168.5390625 C14.37687323 164.39891933 10.30131622 158.69588362 6.5625 152.0625 C5.263125 153.5475 5.263125 153.5475 3.9375 155.0625 C-10.6537233 169.39521737 -34.8751187 176.77740695 -54.4375 181.0625 C-55.42979614 181.30021118 -55.42979614 181.30021118 -56.44213867 181.54272461 C-62.50196546 182.96717827 -68.5765817 183.85064283 -74.75 184.625 C-76.27729736 184.81896362 -76.27729736 184.81896362 -77.83544922 185.0168457 C-110.1209058 189.05446521 -110.1209058 189.05446521 -118.4375 185.0625 C-126.92758139 177.95405922 -136.63970911 162.64151347 -137.8125 151.5 C-137.37326381 147.47366826 -136.84491962 145.34534494 -134.4375 142.0625 C-127.70738129 137.73224639 -120.48240147 137.28356668 -112.6875 136.875 C-110.48422343 136.73809489 -108.28109018 136.59885873 -106.078125 136.45703125 C-104.63228027 136.37739136 -104.63228027 136.37739136 -103.15722656 136.29614258 C-100.51993152 136.06958142 -98.01987068 135.63410934 -95.4375 135.0625 C-96.159375 134.7325 -96.88125 134.4025 -97.625 134.0625 C-103.91516964 129.58949048 -106.46090327 122.12096317 -108.75 115 C-109.01361328 114.23623047 -109.27722656 113.47246094 -109.54882812 112.68554688 C-112.16580189 104.7394629 -111.69047735 98.89487857 -108.75 91.0625 C-104.91553187 80.3034741 -102.66576257 69.24568622 -100.4375 58.0625 C-101.82388672 58.12244141 -101.82388672 58.12244141 -103.23828125 58.18359375 C-106.80713418 58.04850896 -108.4905064 57.16445748 -111.1171875 54.7578125 C-113.58212941 51.59276874 -114.48223577 47.90417413 -115.4375 44.0625 C-115.62183594 43.45664063 -115.80617187 42.85078125 -115.99609375 42.2265625 C-117.96970776 32.55061417 -117.17376457 20.81755804 -112.359375 12.11328125 C-101.46493883 -2.48920096 -80.28949002 -6.2728691 -63.4375 -8.9375 C-62.37402344 -9.123125 -61.31054688 -9.30875 -60.21484375 -9.5 C-41.02924216 -11.72211725 -16.36842757 -11.7131867 0 0 Z M-61.4375 43.0625 C-62.0975 49.6625 -62.7575 56.2625 -63.4375 63.0625 C-41.64691959 57.38293112 -41.64691959 57.38293112 -22.4375 46.0625 C-22.4375 45.4025 -22.4375 44.7425 -22.4375 44.0625 C-34.854766 39.46756457 -48.72128081 39.78089505 -61.4375 43.0625 Z M420.5625 43.0625 C420.8925 44.7125 421.2225 46.3625 421.5625 48.0625 C427.1725 48.0625 432.7825 48.0625 438.5625 48.0625 C438.8925 46.4125 439.2225 44.7625 439.5625 43.0625 C433.2925 43.0625 427.0225 43.0625 420.5625 43.0625 Z M536.5625 43.0625 C536.32471484 84.07530091 536.32471484 84.07530091 537.5625 125.0625 C541.15961228 125.71652041 544.59266794 126.20026556 548.25 126.1875 C549.36955078 126.19136719 549.36955078 126.19136719 550.51171875 126.1953125 C552.76350824 126.13675092 552.76350824 126.13675092 555.5625 125.0625 C556.3821684 120.09816235 556.66087718 115.43335222 556.58422852 110.38305664 C556.57462097 109.65051666 556.56501343 108.91797668 556.55511475 108.16323853 C556.52239963 105.76627132 556.48196481 103.36950245 556.44140625 100.97265625 C556.41707818 99.30114927 556.39323601 97.62963516 556.36985779 95.95811462 C556.30728403 91.57689227 556.23814297 87.19579763 556.16760254 82.81469727 C556.09667658 78.33681004 556.03200523 73.85883287 555.96679688 69.38085938 C555.83812921 60.60797121 555.7019403 51.83522356 555.5625 43.0625 C549.2925 43.0625 543.0225 43.0625 536.5625 43.0625 Z M191.5625 99.0625 C188.3167928 103.04815118 188.3167928 103.04815118 187.8125 107.9375 C188.06 108.63875 188.3075 109.34 188.5625 110.0625 C189.2225 110.0625 189.8825 110.0625 190.5625 110.0625 C192.50929922 104.58628307 192.50929922 104.58628307 191.5625 99.0625 Z M420.5625 101.0625 C420.5625 108.9825 420.5625 116.9025 420.5625 125.0625 C426.8325 125.0625 433.1025 125.0625 439.5625 125.0625 C439.5625 117.1425 439.5625 109.2225 439.5625 101.0625 C433.2925 101.0625 427.0225 101.0625 420.5625 101.0625 Z M-71.4375 105.0625 C-71.87320313 106.25746094 -72.30890625 107.45242187 -72.7578125 108.68359375 C-80.49822218 129.50330547 -80.49822218 129.50330547 -88.4375 135.0625 C-81.7101904 135.27950999 -75.38246093 134.46632687 -68.75 133.375 C-67.65437744 133.19493408 -66.55875488 133.01486816 -65.42993164 132.8293457 C-45.53088507 129.4598218 -25.87222143 125.52549708 -9.4375 113.0625 C-21.26273585 102.34588001 -40.32163154 102.53614988 -55.36523438 102.95166016 C-60.77170584 103.24083759 -66.10924373 104.13005515 -71.4375 105.0625 Z M131.5625 116.0625 C134.21426454 118.71426454 135.85205056 118.75807549 139.5625 119.0625 C142.85753272 118.48194286 142.85753272 118.48194286 146.125 117.375 C147.21941406 117.04113281 148.31382812 116.70726562 149.44140625 116.36328125 C152.6872462 115.0105094 154.94008332 113.38214231 157.5625 111.0625 C148.19638544 110.76036727 140.04979966 112.00335668 131.5625 116.0625 Z M300.8125 115.5625 C299.20375 116.305 299.20375 116.305 297.5625 117.0625 C297.16269993 120.87641264 297.16269993 120.87641264 298.8125 122.73046875 C303.39697979 126.71118892 306.48742922 127.84933962 312.5625 128.0625 C314.36567221 124.09552114 315.05452991 120.3802458 315.5625 116.0625 C308.13697605 113.77741881 308.13697605 113.77741881 300.8125 115.5625 Z M41.5625 127.0625 C41.5625 127.7225 41.5625 128.3825 41.5625 129.0625 C48.08667344 130.15205009 52.65887663 130.56094348 58.5625 127.0625 C61.36763738 124.86803854 64.05910773 122.59840385 66.5625 120.0625 C66.5625 119.7325 66.5625 119.4025 66.5625 119.0625 C57.56419828 118.47565424 48.52245856 121.17180881 41.5625 127.0625 Z " fill="#040404" transform="translate(245.4375,23.9375)"/>
<path d="M0 0 C0.73236374 -0.0071553 1.46472748 -0.01431061 2.21928406 -0.02168274 C4.63128762 -0.03854018 7.04142432 -0.01918504 9.45336914 0.00219727 C11.13578952 0.00136819 12.81820982 -0.00109264 14.50062561 -0.00511169 C18.02377759 -0.00796777 21.54629319 0.00671063 25.06933594 0.03417969 C29.57651553 0.06823642 34.0825555 0.06225146 38.58978939 0.04351711 C42.06349617 0.03292703 45.53693969 0.0419035 49.01062202 0.05690193 C50.67193379 0.06207127 52.3332732 0.06161712 53.99458122 0.05535698 C56.32120315 0.04988127 58.6462177 0.07035322 60.97265625 0.09765625 C61.6538855 0.09113037 62.33511475 0.08460449 63.0369873 0.07788086 C70.18636951 0.21991412 74.38092171 4.20990285 79.22290039 9.03735352 C80.05176758 9.86364258 80.88063477 10.68993164 81.73461914 11.54125977 C82.5815332 12.3959082 83.42844727 13.25055664 84.30102539 14.13110352 C85.1634082 14.98575195 86.02579102 15.84040039 86.91430664 16.72094727 C87.73801758 17.54723633 88.56172852 18.37352539 89.41040039 19.22485352 C90.15773438 19.97444336 90.90506836 20.7240332 91.67504883 21.49633789 C94.57131707 24.79214339 95.79246832 27.45523797 95.85742188 31.84545898 C95.87340927 32.66666229 95.88939667 33.4878656 95.90586853 34.33395386 C95.91123123 35.21318512 95.91659393 36.09241638 95.92211914 36.99829102 C95.93114761 37.91063507 95.94017609 38.82297913 95.94947815 39.76296997 C95.96397055 41.69114913 95.97286488 43.61937735 95.9765625 45.54760742 C95.98845642 48.4890475 96.03764871 51.4283874 96.08813477 54.36938477 C96.09759986 56.24567664 96.10483448 58.12198137 96.10961914 59.99829102 C96.12915146 60.87347382 96.14868378 61.74865662 96.16880798 62.65036011 C96.12374189 68.7862933 94.82519836 71.25676452 90.55102539 75.63110352 C90.45872735 78.67693875 91.52689026 79.60395149 93.55102539 81.88110352 C97.86885808 87.81812346 96.7111699 96.79380088 96.71899414 103.88500977 C96.72398674 105.47453712 96.72398674 105.47453712 96.7290802 107.09617615 C96.73412051 109.32583179 96.73648943 111.55549491 96.73632812 113.78515625 C96.73852075 117.18640545 96.75672424 120.58733318 96.77563477 123.98852539 C96.77856811 126.16235241 96.7805533 128.33618097 96.78149414 130.51000977 C96.78867966 131.52059952 96.79586517 132.53118927 96.80326843 133.57240295 C96.76427666 145.67140193 96.76427666 145.67140193 92.89477539 150.84594727 C92.28633789 151.41442383 91.67790039 151.98290039 91.05102539 152.56860352 C90.44258789 153.15512695 89.83415039 153.74165039 89.20727539 154.34594727 C87.55102539 155.63110352 87.55102539 155.63110352 85.55102539 155.63110352 C85.55102539 156.29110352 85.55102539 156.95110352 85.55102539 157.63110352 C84.42670657 158.82356287 83.29043914 160.00664596 82.10180664 161.13500977 C81.00442739 162.1936905 79.94206996 163.28923824 78.90649414 164.40844727 C78.33543945 165.01817383 77.76438477 165.62790039 77.17602539 166.25610352 C76.65266602 166.82586914 76.12930664 167.39563477 75.59008789 167.98266602 C70.47719421 172.11607815 65.46916048 173.00811051 59.02685547 173.03515625 C58.31049423 173.0420195 57.594133 173.04888275 56.85606384 173.05595398 C54.51068785 173.07411497 52.16598717 173.07040225 49.82055664 173.06469727 C48.18104334 173.06926222 46.54153195 173.07456873 44.90202332 173.08058167 C41.47675771 173.08949013 38.0517256 173.08711322 34.62646484 173.07714844 C30.23803178 173.06562489 25.85039935 173.0859328 21.46207142 173.11506557 C18.08114008 173.13340491 14.7004018 173.13314033 11.31943321 173.12742805 C9.70110635 173.12727476 8.08276648 173.13332617 6.46448708 173.14571953 C4.20481452 173.16059651 1.94663739 173.14998118 -0.31298828 173.1328125 C-1.59759445 173.13264633 -2.88220062 173.13248016 -4.20573425 173.13230896 C-7.99895935 172.54610971 -9.13746499 171.62490111 -11.44897461 168.63110352 C-12.61220148 166.30464978 -12.58837504 164.92631679 -12.61392212 162.33428955 C-12.6251561 161.43038986 -12.63639008 160.52649017 -12.64796448 159.59519958 C-12.65529099 158.59932327 -12.66261749 157.60344696 -12.67016602 156.57739258 C-12.68167191 155.52932938 -12.6931778 154.48126617 -12.70503235 153.40144348 C-12.74197964 149.89990221 -12.77154047 146.39834409 -12.80053711 142.89672852 C-12.82369922 140.4314554 -12.84708981 137.96618442 -12.87069702 135.50091553 C-12.91933942 130.29189379 -12.96417559 125.08285531 -13.0065918 119.8737793 C-13.0493439 114.62404077 -13.09803274 109.3743912 -13.15209961 104.12475586 C-13.33184801 86.62686982 -13.45054276 69.129985 -13.44897461 51.63110352 C-13.44903 50.46046356 -13.44908539 49.28982361 -13.44914246 48.08370972 C-13.44396962 41.45559656 -13.40629993 34.82900751 -13.32001877 28.2014389 C-13.29685786 26.20677175 -13.28177202 24.21199231 -13.27528763 22.21720123 C-13.26391355 19.49842168 -13.22113398 16.78198589 -13.16918945 14.0637207 C-13.1732889 12.88035755 -13.1732889 12.88035755 -13.17747116 11.67308807 C-13.06871751 7.86920125 -12.5592735 5.78957232 -10.36952209 2.64350891 C-6.83015797 0.20470746 -4.15595828 -0.07111899 0 0 Z M32.55102539 45.63110352 C32.88102539 47.28110352 33.21102539 48.93110352 33.55102539 50.63110352 C39.16102539 50.63110352 44.77102539 50.63110352 50.55102539 50.63110352 C50.88102539 48.98110352 51.21102539 47.33110352 51.55102539 45.63110352 C45.28102539 45.63110352 39.01102539 45.63110352 32.55102539 45.63110352 Z M32.55102539 103.63110352 C32.55102539 111.55110352 32.55102539 119.47110352 32.55102539 127.63110352 C38.82102539 127.63110352 45.09102539 127.63110352 51.55102539 127.63110352 C51.55102539 119.71110352 51.55102539 111.79110352 51.55102539 103.63110352 C45.28102539 103.63110352 39.01102539 103.63110352 32.55102539 103.63110352 Z " fill="#FDFDFD" transform="translate(633.448974609375,21.368896484375)"/>
<path d="M0 0 C1.05731323 -0.0038269 2.11462646 -0.00765381 3.20397949 -0.01159668 C5.4294531 -0.01430697 7.65495905 -0.00700803 9.88037109 0.00976562 C13.27123579 0.03118674 16.65998183 0.00993255 20.05078125 -0.015625 C22.22135881 -0.01298157 24.39193505 -0.00785628 26.5625 0 C28.0706427 -0.01214539 28.0706427 -0.01214539 29.60925293 -0.02453613 C38.33046872 0.09065737 44.21675283 2.43256956 50.39453125 8.68359375 C51.5537207 9.84858398 51.5537207 9.84858398 52.73632812 11.03710938 C53.51427734 11.83955078 54.29222656 12.64199219 55.09375 13.46875 C56.28967773 14.66661133 56.28967773 14.66661133 57.50976562 15.88867188 C64.16328556 22.64291794 67.20580313 26.92132508 67.45605469 36.45410156 C67.50547274 37.7711376 67.50547274 37.7711376 67.55588913 39.11478043 C67.9066628 49.32837471 67.96467265 59.54696278 67.984375 69.765625 C67.98861607 71.27872631 67.98861607 71.27872631 67.99294281 72.82239532 C68.00775514 78.13550563 68.01710378 83.44858992 68.02148438 88.76171875 C68.02701947 94.22198852 68.05120318 99.68201527 68.07945633 105.1422081 C68.09808926 109.37677731 68.10328812 113.61128712 68.10482025 117.84589386 C68.10783331 119.86004246 68.11581593 121.87419036 68.12900543 123.88829803 C68.14611995 126.696232 68.14417536 129.50355805 68.13769531 132.31152344 C68.1469101 133.13030975 68.15612488 133.94909607 68.1656189 134.79269409 C68.11816168 141.37997924 66.98782799 147.03472916 62.4921875 152.12109375 C61.59757813 152.91644531 60.70296875 153.71179688 59.78125 154.53125 C58.74483271 155.58748214 57.71660035 156.65178826 56.6953125 157.72265625 C55.59905642 158.84644986 54.50270088 159.97014645 53.40625 161.09375 C52.86742187 161.65771484 52.32859375 162.22167969 51.7734375 162.80273438 C46.61423821 168.05406222 40.80965795 172.57235856 33.23071289 172.77172852 C32.28535172 172.79747452 31.33999054 172.82322052 30.36598206 172.8497467 C26.01064463 172.93428962 21.65547537 172.99987903 17.29956055 173.04614258 C15.01151685 173.07766278 12.72363349 173.12529014 10.4362793 173.18969727 C-12.51435149 173.82689129 -12.51435149 173.82689129 -20.21362305 166.6496582 C-20.87531494 165.9505835 -21.53700684 165.25150879 -22.21875 164.53125 C-23.46457424 163.51089749 -24.72251553 162.50502392 -25.99609375 161.51953125 C-27.05277444 160.6315106 -28.10630317 159.73972233 -29.15625 158.84375 C-29.9615918 158.17375977 -29.9615918 158.17375977 -30.78320312 157.49023438 C-36.03026088 153.04346587 -40.80360477 148.47564813 -41.4049778 141.31326866 C-41.48680238 138.47686693 -41.50032237 135.64691757 -41.4934082 132.80932617 C-41.5010746 131.18890663 -41.5010746 131.18890663 -41.50889587 129.53575134 C-41.52279369 125.96518408 -41.5218347 122.39480984 -41.51953125 118.82421875 C-41.52341851 116.33946155 -41.52775325 113.85470502 -41.53251648 111.36994934 C-41.53997943 106.16059211 -41.53968715 100.95130265 -41.53442383 95.74194336 C-41.52772627 89.07391163 -41.54554844 82.40620128 -41.5687685 75.73820019 C-41.58351888 70.60543705 -41.58437566 65.47274067 -41.58125877 60.3399601 C-41.58177148 57.88203697 -41.58699976 55.42411005 -41.59707069 52.9662075 C-41.6094405 49.52440847 -41.60263921 46.08314817 -41.59106445 42.64135742 C-41.59870819 41.63069214 -41.60635193 40.62002686 -41.61422729 39.57873535 C-41.55264881 31.27244721 -40.13417616 24.81172213 -34.05078125 18.734375 C-33.23931641 17.92097656 -32.42785156 17.10757813 -31.59179688 16.26953125 C-30.74681641 15.44839844 -29.90183594 14.62726562 -29.03125 13.78125 C-28.20560547 12.94464844 -27.37996094 12.10804687 -26.52929688 11.24609375 C-18.06338939 2.88025609 -11.94104356 -0.0961637 0 0 Z M3.78125 45.53125 C3.54346484 86.54405091 3.54346484 86.54405091 4.78125 127.53125 C8.37836228 128.18527041 11.81141794 128.66901556 15.46875 128.65625 C16.58830078 128.66011719 16.58830078 128.66011719 17.73046875 128.6640625 C19.98225824 128.60550092 19.98225824 128.60550092 22.78125 127.53125 C23.6009184 122.56691235 23.87962718 117.90210222 23.80297852 112.85180664 C23.79337097 112.11926666 23.78376343 111.38672668 23.77386475 110.63198853 C23.74114963 108.23502132 23.70071481 105.83825245 23.66015625 103.44140625 C23.63582818 101.76989927 23.61198601 100.09838516 23.58860779 98.42686462 C23.52603403 94.04564227 23.45689297 89.66454763 23.38635254 85.28344727 C23.31542658 80.80556004 23.25075523 76.32758287 23.18554688 71.84960938 C23.05687921 63.07672121 22.9206903 54.30397356 22.78125 45.53125 C16.51125 45.53125 10.24125 45.53125 3.78125 45.53125 Z " fill="#FCFCFC" transform="translate(778.21875,21.46875)"/>
<path d="M0 0 C0.65214981 -0.00524185 1.30429962 -0.0104837 1.97621155 -0.0158844 C3.35383686 -0.02229972 4.73151698 -0.02097382 6.10913086 -0.01245117 C8.21242326 -0.00394762 10.31299208 -0.03268986 12.41601562 -0.06445312 C13.75650961 -0.06606554 15.09700838 -0.06548684 16.4375 -0.0625 C18.26269165 -0.06527954 18.26269165 -0.06527954 20.12475586 -0.06811523 C23.28515625 0.43359375 23.28515625 0.43359375 25.68164062 1.77636719 C28.28956481 6.09802475 27.82782226 10.4961567 27.7890625 15.4453125 C27.79848373 16.52810989 27.80790497 17.61090729 27.81761169 18.72651672 C27.84630283 22.19156728 27.84933965 25.65593395 27.84765625 29.12109375 C27.85127246 32.56830153 27.86093398 36.01500818 27.88841248 39.46211243 C27.90509619 41.60575605 27.90815977 43.74956368 27.895401 45.89323425 C27.94643239 53.21386863 28.74736638 59.86965406 33.08203125 65.95703125 C37.62122949 68.99925986 43.0864776 68.27528458 48.28515625 67.43359375 C52.09210877 65.55305094 55.35782013 63.28826599 57.28515625 59.43359375 C57.38427573 57.66237868 57.42071213 55.88750057 57.42700195 54.11352539 C57.43403641 53.00219742 57.44107086 51.89086945 57.44831848 50.74586487 C57.4545649 48.93806801 57.4545649 48.93806801 57.4609375 47.09375 C57.48412941 44.56184059 57.50824649 42.02993951 57.53320312 39.49804688 C57.56838871 35.49058137 57.5993819 31.48342682 57.61108398 27.47583008 C57.62650118 23.61892182 57.66666801 19.76292054 57.7109375 15.90625 C57.70902908 14.70307632 57.70712067 13.49990265 57.70515442 12.26026917 C57.72164536 11.14578903 57.73813629 10.0313089 57.75512695 8.88305664 C57.76392632 7.40984703 57.76392632 7.40984703 57.77290344 5.90687561 C58.28515625 3.43359375 58.28515625 3.43359375 60.128479 1.61924744 C64.52529153 -0.79794178 69.80115451 -0.08412487 74.70239258 -0.06738281 C76.71385951 -0.0664105 78.7215056 -0.10804502 80.73242188 -0.15234375 C82.00666016 -0.15492187 83.28089844 -0.1575 84.59375 -0.16015625 C85.75704834 -0.16724609 86.92034668 -0.17433594 88.11889648 -0.18164062 C92.30929129 0.63259293 93.61482666 2.14644102 96.28515625 5.43359375 C96.90661621 8.57603455 96.90661621 8.57603455 96.90039062 12.14819336 C96.90593964 12.80252853 96.91148865 13.45686371 96.91720581 14.13102722 C96.92896908 16.28342082 96.90476325 18.43369273 96.87890625 20.5859375 C96.87719392 22.08899337 96.87726207 23.59205223 96.87902832 25.09510803 C96.87737691 28.2416755 96.85871552 31.38752895 96.82714844 34.53393555 C96.78750489 38.55673933 96.78310022 42.57860715 96.79061127 46.60156918 C96.79368897 49.70468134 96.78153162 52.80758516 96.76448059 55.91064644 C96.75747443 57.39332331 96.75432315 58.87602379 96.75517273 60.35871696 C96.75336405 62.43610715 96.73189304 64.51240048 96.70507812 66.58959961 C96.69665894 67.76920761 96.68823975 68.94881561 96.67956543 70.16416931 C96.16400257 74.43788785 94.82418155 77.92519582 91.71484375 80.97265625 C91.20179688 81.33101563 90.68875 81.689375 90.16015625 82.05859375 C87.30019235 84.10229439 87.30019235 84.10229439 86.33203125 86.29296875 C86.05117564 88.64415697 86.05117564 88.64415697 88.12109375 90.72265625 C89.37792969 91.87894531 89.37792969 91.87894531 90.66015625 93.05859375 C96.22137991 98.24103437 96.22137991 98.24103437 96.4390564 102.31138611 C96.45191681 103.54143875 96.46477722 104.77149139 96.47802734 106.03881836 C96.49029358 107.05615303 96.49029358 107.05615303 96.50280762 108.09403992 C96.52764779 110.3413301 96.54417136 112.58855731 96.55859375 114.8359375 C96.56391743 115.60263826 96.5692411 116.36933903 96.5747261 117.15927315 C96.60144802 121.21514003 96.62082844 125.27097619 96.63525391 129.3269043 C96.65192616 133.52170361 96.69672688 137.71572094 96.74762535 141.91022396 C96.78122701 145.13152502 96.79282325 148.35263852 96.79848099 151.57409859 C96.8052101 153.12073324 96.82047531 154.66735483 96.8443718 156.2138195 C96.87588673 158.37619372 96.87608293 160.53643242 96.86865234 162.69897461 C96.8767392 163.92982285 96.88482605 165.16067108 96.89315796 166.42881775 C96.28515625 169.43359375 96.28515625 169.43359375 93.95330811 171.33024597 C90.60669432 172.71415479 87.95948971 172.82192185 84.33984375 172.83203125 C83.36230637 172.83633652 83.36230637 172.83633652 82.36502075 172.84072876 C80.99512863 172.84276066 79.62520691 172.8372921 78.25537109 172.82470703 C76.15917389 172.8085862 74.06488916 172.82460942 71.96875 172.84375 C70.63411034 172.84176843 69.29947186 172.83792652 67.96484375 172.83203125 C66.75554199 172.82864746 65.54624023 172.82526367 64.30029297 172.82177734 C61.28515625 172.43359375 61.28515625 172.43359375 59.61679077 171.24595642 C57.78959815 168.75913617 57.93219163 167.11718851 57.96386719 164.04760742 C57.96666687 162.94603806 57.96946655 161.84446869 57.97235107 160.70951843 C57.98792053 159.51889297 58.00348999 158.32826752 58.01953125 157.1015625 C58.01675957 154.58658704 58.01281672 152.07161264 58.0078125 149.55664062 C58.016165 145.58650185 58.03519633 141.61716404 58.07568359 137.6472168 C58.10853281 133.81885537 58.09817745 129.9924878 58.08203125 126.1640625 C58.10569763 124.97950974 58.12936401 123.79495697 58.15374756 122.57450867 C58.22484752 116.58977274 58.22484752 116.58977274 55.74377441 111.34780884 C50.47688748 106.74103226 46.28121661 105.98281168 39.34765625 106.0078125 C34.72504067 106.65049757 32.14743119 108.85806583 29.28515625 112.43359375 C28.01038716 114.98313193 28.13270032 116.82324029 28.09570312 119.67773438 C28.07062683 121.31953674 28.07062683 121.31953674 28.04504395 122.99450684 C28.03146851 124.18096802 28.01789307 125.3674292 28.00390625 126.58984375 C27.98549683 127.80305298 27.9670874 129.01626221 27.94812012 130.26623535 C27.88921946 134.15530435 27.83646211 138.04441757 27.78515625 141.93359375 C27.71768358 147.04827417 27.644015 152.16280823 27.56640625 157.27734375 C27.55283081 158.46380493 27.53925537 159.65026611 27.52526855 160.87268066 C27.50019226 162.51448303 27.50019226 162.51448303 27.47460938 164.18945312 C27.45581726 165.63934631 27.45581726 165.63934631 27.43664551 167.11853027 C27.28515625 169.43359375 27.28515625 169.43359375 26.28515625 171.43359375 C21.18205164 173.13462862 15.74754984 172.65890829 10.40625 172.67382812 C8.29257228 172.68355961 6.17985696 172.71460845 4.06640625 172.74609375 C2.72266201 172.75262184 1.37891084 172.75787307 0.03515625 172.76171875 C-1.186875 172.77106445 -2.40890625 172.78041016 -3.66796875 172.79003906 C-6.71484375 172.43359375 -6.71484375 172.43359375 -8.60473633 171.21972656 C-10.05734751 168.88251446 -10.14507108 167.27749095 -10.2265625 164.52734375 C-10.28094482 162.97720581 -10.28094482 162.97720581 -10.33642578 161.39575195 C-10.35817871 160.25323975 -10.37993164 159.11072754 -10.40234375 157.93359375 C-10.42925293 156.73629639 -10.45616211 155.53899902 -10.48388672 154.30541992 C-10.5385016 151.58027287 -10.58517679 148.85569961 -10.62548828 146.13037109 C-10.69626524 141.82221363 -10.84262945 137.518323 -10.99293518 133.21231079 C-11.11741831 129.35184289 -11.19963525 125.4911284 -11.27359009 121.62939453 C-11.31751822 119.71768118 -11.37673987 117.80625396 -11.45175171 115.89550781 C-12.0357518 100.42566419 -12.0357518 100.42566419 -8.66699219 95.34521484 C-6.17578125 92.9765625 -6.17578125 92.9765625 -3.66162109 91.17651367 C-1.44753523 89.57090085 -1.44753523 89.57090085 -1.34472656 86.81591797 C-1.81382201 83.7965028 -2.66098273 83.15060621 -5.08984375 81.37109375 C-7.92932411 79.26193241 -9.40313143 77.73927029 -10.71484375 74.43359375 C-10.96208191 71.61468506 -10.96208191 71.61468506 -10.95776367 68.32324219 C-10.9608403 67.08805847 -10.96391693 65.85287476 -10.96708679 64.58026123 C-10.9601853 63.23449519 -10.95291805 61.88873099 -10.9453125 60.54296875 C-10.94411919 59.1553756 -10.94366786 57.76778163 -10.94392395 56.38018799 C-10.94236083 53.4716689 -10.93408843 50.56327319 -10.9206543 47.65478516 C-10.90372821 43.94513476 -10.89983838 40.23562061 -10.90059948 36.52593613 C-10.90032604 33.65871911 -10.89481605 30.79153128 -10.88759804 27.92432404 C-10.88443691 26.5577237 -10.88245 25.19112008 -10.88170433 23.8245163 C-10.86066941 5.41167902 -10.86066941 5.41167902 -8.57202148 1.46069336 C-5.72062649 -0.1162514 -3.23895949 0.0259735 0 0 Z " fill="#FCFCFC" transform="translate(863.71484375,21.56640625)"/>
<path d="M0 0 C6.24707203 6.04021534 7.88549793 12.35696124 8.16430664 20.76782227 C8.42731031 37.73080779 3.42361565 48.67033819 -7.23046875 61.7109375 C-7.89046875 62.7009375 -8.55046875 63.6909375 -9.23046875 64.7109375 C-8.45703125 64.85789062 -7.68359375 65.00484375 -6.88671875 65.15625 C3.68509897 67.43285431 9.53238551 71.20636816 15.54296875 80.171875 C18.54423496 86.38468721 19.15924096 92.66652411 19.14453125 99.4609375 C19.14291992 100.2451709 19.14130859 101.0294043 19.13964844 101.83740234 C18.99678729 108.66812606 17.5552618 114.45509278 14.76953125 120.7109375 C14.46917969 121.43410156 14.16882813 122.15726563 13.859375 122.90234375 C5.71061126 140.92839687 -10.49421438 149.16312967 -28.04296875 155.8984375 C-45.3607046 162.26921079 -63.74487995 166.2893495 -82.1640625 167.5 C-84.42636495 167.6549848 -84.42636495 167.6549848 -87.23046875 168.7109375 C-103.72666945 170.7583383 -103.72666945 170.7583383 -109.82421875 167.1953125 C-111.70015223 164.80615194 -112.92456605 162.45517247 -114.23046875 159.7109375 C-114.9407033 158.52373005 -115.66425647 157.34442473 -116.3984375 156.171875 C-122.77559345 145.79876804 -122.77559345 145.79876804 -122.23046875 140.7109375 C-109.79616437 138.94177815 -97.37023934 137.50235228 -84.85568237 136.45227051 C-36.20732051 132.53910229 -36.20732051 132.53910229 5.01953125 108.5859375 C6.93143926 105.91141704 6.93143926 105.91141704 7.01953125 103.2109375 C3.88252963 96.93693426 -2.8476578 93.11446475 -9.23046875 90.7109375 C-20.75794983 87.15915879 -31.51299892 85.538482 -43.54296875 85.5859375 C-44.99606445 85.58013672 -44.99606445 85.58013672 -46.47851562 85.57421875 C-52.34207447 85.58204204 -58.01503132 85.93045666 -63.82617188 86.73461914 C-68.06186088 86.69289881 -70.18705111 84.48382912 -73.23046875 81.7109375 C-73.31683594 82.33097656 -73.40320313 82.95101562 -73.4921875 83.58984375 C-75.34749986 95.28341796 -78.8391159 106.67515367 -85.23046875 116.7109375 C-87.03125 116.65234375 -87.03125 116.65234375 -89.23046875 115.7109375 C-90.51442219 113.32645255 -91.48689441 111.16596578 -92.41796875 108.6484375 C-92.67771484 108.00455078 -92.93746094 107.36066406 -93.20507812 106.69726562 C-96.92337427 97.06044124 -96.09105413 90.64644649 -92.98046875 80.9609375 C-89.1738775 68.71091957 -86.05450215 56.6406422 -84.04296875 43.9609375 C-83.86572266 42.87039062 -83.68847656 41.77984375 -83.50585938 40.65625 C-83.07618237 38.00851063 -82.6511123 35.36012425 -82.23046875 32.7109375 C-83.83587534 33.50008671 -85.43974891 34.29235515 -87.04296875 35.0859375 C-87.93628906 35.52679688 -88.82960937 35.96765625 -89.75 36.421875 C-92.37603256 37.72960655 -92.37603256 37.72960655 -95.23046875 39.7109375 C-97.41796875 39.3359375 -97.41796875 39.3359375 -99.23046875 38.7109375 C-101.85798597 30.17150653 -102.49414599 20.41738843 -100.23046875 11.7109375 C-92.80253327 -0.02999277 -77.89878882 -3.29300195 -65.18359375 -6.265625 C-45.48687741 -10.41376738 -17.04416612 -12.84015574 0 0 Z M-56.23046875 34.7109375 C-56.89046875 41.3109375 -57.55046875 47.9109375 -58.23046875 54.7109375 C-36.43988834 49.03136862 -36.43988834 49.03136862 -17.23046875 37.7109375 C-17.23046875 37.0509375 -17.23046875 36.3909375 -17.23046875 35.7109375 C-29.64773475 31.11600207 -43.51424956 31.42933255 -56.23046875 34.7109375 Z " fill="#FBFBFB" transform="translate(240.23046875,32.2890625)"/>
<path d="M0 0 C3.53659092 0.56002416 4.95559692 1.67774324 7.1875 4.4375 C7.69667969 5.05496094 8.20585938 5.67242187 8.73046875 6.30859375 C11.52770761 10.0353766 11.49627196 13.49956109 11 18 C9.86772906 22.72855116 8.43090517 27.35445857 7 32 C4.68232041 39.88011062 2.52423081 47.78199091 0.5703125 55.75952148 C-0.68606162 60.84893236 -2.07169072 65.89391851 -3.5 70.9375 C-5.32951167 77.40297212 -6.93066774 83.88717769 -8.40136719 90.44262695 C-9.94023613 97.11441337 -11.94664107 103.6307229 -14.07006836 110.13818359 C-15.56686955 114.87877711 -16.55958452 118.96988858 -16 124 C-14.79594456 126.4438293 -14.79594456 126.4438293 -13.0625 128.5 C-10.3042513 132.38393015 -8.63441874 135.06465302 -9 140 C-12.8034089 147.19604964 -19.69476009 149.56492003 -27 152 C-42.76527768 153.31893564 -54.72291689 151.42909385 -67.12890625 141.25390625 C-78.51188743 130.86450597 -81.09586662 117.45627475 -81.87695312 102.80639648 C-82.30607873 91.31655829 -80.4708314 80.57079548 -73.375 71.25 C-68.8134762 66.36996581 -63.49579379 63.45540738 -56.8515625 62.58984375 C-44.21650357 62.24470556 -33.51501922 66.18614366 -23 73 C-22.01 74.485 -22.01 74.485 -21 76 C-20.07848742 72.83472433 -19.16379013 69.66751289 -18.25 66.5 C-17.87101563 65.19869141 -17.87101563 65.19869141 -17.484375 63.87109375 C-15.32006669 56.35012238 -13.41811172 48.77169664 -11.54003906 41.17578125 C-10.03957847 35.13052593 -8.50293441 29.09435397 -6.96289062 23.05908203 C-6.56560838 21.49866033 -6.17014728 19.93777401 -5.77636719 18.37646484 C-5.19640458 16.07797145 -4.61055476 13.78104978 -4.0234375 11.484375 C-3.84944427 10.78963074 -3.67545105 10.09488647 -3.4961853 9.37908936 C-2.63697121 6.04360937 -1.71073219 3.00071414 0 0 Z M-52.75 102.5 C-54.35875 103.2425 -54.35875 103.2425 -56 104 C-56.39980007 107.81391264 -56.39980007 107.81391264 -54.75 109.66796875 C-50.16552021 113.64868892 -47.07507078 114.78683962 -41 115 C-39.19682779 111.03302114 -38.50797009 107.3177458 -38 103 C-45.42552395 100.71491881 -45.42552395 100.71491881 -52.75 102.5 Z " fill="#FBFBFB" transform="translate(599,37)"/>
<path d="M0 0 C2.25810195 2.33596753 2.76270373 3.34912124 3.0703125 6.59765625 C2.46206974 14.32971199 -3.33731504 23.17017976 -8.59375 28.83203125 C-10.1875 29.875 -10.1875 29.875 -14.125 29.9375 C-16.61877636 29.38436915 -18.94623387 28.62208871 -21.375 27.8125 C-35.27023619 24.39563864 -50.23559958 27.81281099 -62.69921875 34.27734375 C-65.23190394 35.90351053 -67.15213979 37.66804034 -69.1875 39.875 C-66.75951247 45.8416502 -60.93452336 48.5320108 -55.375 51.25 C-42.07201054 53.85842931 -32.12915053 50.20736908 -21.1875 42.875 C-18.27750647 40.7527314 -15.39116372 38.60846248 -12.53515625 36.4140625 C-10.1875 34.875 -10.1875 34.875 -7.1875 34.875 C-1.05747538 44.59933624 -5.89415534 60.67124361 -8.14477539 70.94262695 C-11.31391236 84.54267101 -11.31391236 84.54267101 -16 87.875 C-19.1875 88.875 -19.1875 88.875 -25.1875 87.875 C-25.8475 83.255 -26.5075 78.635 -27.1875 73.875 C-28.71375 74.82375 -30.24 75.7725 -31.8125 76.75 C-38.42312118 80.85930506 -43.90308903 82.20677307 -51.5625 82.125 C-52.63757813 82.13660156 -52.63757813 82.13660156 -53.734375 82.1484375 C-63.97974409 82.11145061 -72.30017526 78.48767655 -80.9375 73.1875 C-87.66730988 66.27075095 -90.42311467 59.2496661 -90.36157227 49.81689453 C-90.12500886 35.25356758 -84.7671229 23.72276576 -74.625 13.15234375 C-56.11315844 -4.14317488 -23.0482141 -15.36547607 0 0 Z " fill="#FBFBFB" transform="translate(431.1875,99.125)"/>
<path d="M0 0 C0.79599609 -0.01023193 1.59199219 -0.02046387 2.41210938 -0.03100586 C8.45752101 0.05882102 14.52549665 0.92919698 19.1875 5.125 C26.18330769 19.50527136 22.83318704 38.52491866 18.14697266 53.07421875 C13.11843694 67.31536145 6.41409164 77.53716125 -7.47851562 84.20166016 C-17.41009785 88.70174203 -28.4401539 90.56443802 -39 86.9375 C-45.42532664 84.01407968 -49.21117321 79.3486643 -52.35546875 73.1484375 C-56.9392597 60.37834541 -53.06834908 43.77285578 -47.8359375 31.734375 C-40.71649351 17.49548703 -28.1644671 6.17699331 -12.98046875 1.09375 C-8.63529672 0.22780824 -4.4230695 0.04390672 0 0 Z M-27.6875 51.4375 C-27.6875 52.0975 -27.6875 52.7575 -27.6875 53.4375 C-21.16332656 54.52705009 -16.59112337 54.93594348 -10.6875 51.4375 C-7.88236262 49.24303854 -5.19089227 46.97340385 -2.6875 44.4375 C-2.6875 44.1075 -2.6875 43.7775 -2.6875 43.4375 C-11.68580172 42.85065424 -20.72754144 45.54680881 -27.6875 51.4375 Z " fill="#FBFBFB" transform="translate(314.6875,99.5625)"/>
<path d="M0 0 C3.79598549 1.49128001 5.71720399 3.65733441 8 7 C8 7.99 8 8.98 8 10 C8.969375 9.566875 9.93875 9.13375 10.9375 8.6875 C21.521295 4.19518409 31.5895047 1.51607134 43.015625 4.890625 C49.17413426 7.65642257 53.96198497 11.92396994 57 18 C57.67744536 27.82295776 53.87400011 34.67759664 49 43 C46 42 46 42 43.6875 39.625 C39.3500366 35.38840784 35.40150846 33.63797902 29.29052734 33.53222656 C28.61715332 33.5422168 27.9437793 33.55220703 27.25 33.5625 C26.54697754 33.56862305 25.84395508 33.57474609 25.11962891 33.58105469 C19.16766725 33.75864363 14.20250123 35.02188975 9 38 C7.5145166 38.83253296 7.5145166 38.83253296 5.99902344 39.68188477 C2.41297591 42.4537442 1.87652657 44.01194487 0.8046875 48.35546875 C0.48338867 49.61004883 0.16208984 50.86462891 -0.16894531 52.15722656 C-0.48807883 53.50054454 -0.80675548 54.84397113 -1.125 56.1875 C-1.46767915 57.55617831 -1.8124141 58.9243435 -2.15917969 60.29199219 C-4.27421234 68.69984869 -6.20626673 77.1510503 -8.125 85.60546875 C-9.32544088 90.26253627 -10.98518108 94.63813139 -13 99 C-13.99 99 -14.98 99 -16 99 C-21.06026132 86.57935858 -22.20992936 75.95583566 -18.4375 63.0625 C-18.1686499 62.11157471 -17.8997998 61.16064941 -17.62280273 60.1809082 C-17.04924619 58.15425383 -16.47142095 56.12880338 -15.88964844 54.10449219 C-14.71523139 50.00627945 -13.57223343 45.89957689 -12.4284668 41.79272461 C-11.55956473 38.67697456 -10.68468779 35.56295348 -9.80859375 32.44921875 C-8.53950816 27.93405559 -7.28360147 23.41544423 -6.03515625 18.89453125 C-5.71538818 17.74057861 -5.39562012 16.58662598 -5.06616211 15.39770508 C-4.44847858 13.16779542 -3.83332223 10.93718387 -3.22094727 8.70581055 C-2.94436279 7.70976807 -2.66777832 6.71372559 -2.3828125 5.6875 C-2.13934082 4.80449219 -1.89586914 3.92148438 -1.64501953 3.01171875 C-1 1 -1 1 0 0 Z " fill="#FAFAFA" transform="translate(458,91)"/>
<path d="M0 0 C1.78083984 -0.00290039 1.78083984 -0.00290039 3.59765625 -0.00585938 C4.83386719 0.01798828 6.07007813 0.04183594 7.34375 0.06640625 C8.57996094 0.05544922 9.81617188 0.04449219 11.08984375 0.03320312 C20.09538102 0.10653812 20.09538102 0.10653812 22.99171448 2.12820435 C25.61144565 5.66548354 25.39597719 8.94118478 25.34545898 13.17358398 C25.35086197 14.03420441 25.35626495 14.89482483 25.36183167 15.78152466 C25.37433558 18.6255333 25.35781563 21.46853281 25.33984375 24.3125 C25.33999871 26.29020745 25.34148725 28.26791521 25.34425354 30.24562073 C25.34563833 34.3908531 25.33306715 38.53573981 25.31030273 42.6809082 C25.28193655 47.99179003 25.28464939 53.30209664 25.29739285 58.6130209 C25.30435194 62.69742231 25.29655776 66.78169104 25.28413582 70.86607552 C25.27962226 72.82407179 25.27928368 74.78208232 25.28320122 76.74007988 C25.28611519 79.47862752 25.26959685 82.2163861 25.24780273 84.95483398 C25.25230438 85.76278915 25.25680603 86.57074432 25.26144409 87.40318298 C25.20147086 91.94419643 24.82352638 95.10273529 21.84375 98.62890625 C18.63767017 99.36011744 16.10802926 99.55848398 12.84375 99.62890625 C12.14572266 99.66387207 11.44769531 99.69883789 10.72851562 99.73486328 C8.32962614 99.85460735 5.93206736 99.93362555 3.53125 100.00390625 C2.74226318 100.04233643 1.95327637 100.0807666 1.14038086 100.12036133 C0.38635986 100.13091553 -0.36766113 100.14146973 -1.14453125 100.15234375 C-2.15833862 100.18207275 -2.15833862 100.18207275 -3.19262695 100.21240234 C-6.30843018 99.28653268 -7.36788125 97.2641135 -9.15625 94.62890625 C-9.69718933 91.89904785 -9.69718933 91.89904785 -9.75463867 88.90429688 C-9.78535965 87.77439331 -9.81608063 86.64448975 -9.84773254 85.48034668 C-9.86059799 84.26093384 -9.87346344 83.041521 -9.88671875 81.78515625 C-9.91460983 80.50612427 -9.94250092 79.22709229 -9.97123718 77.90930176 C-10.04372063 74.5016552 -10.09082593 71.09414233 -10.1306076 67.68597412 C-10.1720577 64.36079131 -10.2319373 61.03590848 -10.28759766 57.7109375 C-10.38546835 51.16755368 -10.43141984 44.62511013 -10.45141602 38.08105469 C-10.46316258 35.40283816 -10.48188959 32.72580237 -10.51293945 30.04785156 C-10.5585938 26.10612368 -10.57171067 22.16464313 -10.58203125 18.22265625 C-10.59953934 17.0270105 -10.61704742 15.83136475 -10.63508606 14.5994873 C-10.61377565 6.53395662 -10.61377565 6.53395662 -8.5144043 2.38110352 C-5.49550768 0.13794987 -3.74542807 -0.00250363 0 0 Z M-2.15625 8.62890625 C-2.39403516 49.64170716 -2.39403516 49.64170716 -1.15625 90.62890625 C2.44086228 91.28292666 5.87391794 91.76667181 9.53125 91.75390625 C10.65080078 91.75777344 10.65080078 91.75777344 11.79296875 91.76171875 C14.04475824 91.70315717 14.04475824 91.70315717 16.84375 90.62890625 C17.6634184 85.6645686 17.94212718 80.99975847 17.86547852 75.94946289 C17.85587097 75.21692291 17.84626343 74.48438293 17.83636475 73.72964478 C17.80364963 71.33267757 17.76321481 68.9359087 17.72265625 66.5390625 C17.69832818 64.86755552 17.67448601 63.19604141 17.65110779 61.52452087 C17.58853403 57.14329852 17.51939297 52.76220388 17.44885254 48.38110352 C17.37792658 43.90321629 17.31325523 39.42523912 17.24804688 34.94726562 C17.11937921 26.17437746 16.9831903 17.40162981 16.84375 8.62890625 C10.57375 8.62890625 4.30375 8.62890625 -2.15625 8.62890625 Z " fill="#020202" transform="translate(784.15625,58.37109375)"/>
<path d="M0 0 C1.8984375 1.6953125 1.8984375 1.6953125 2.81640625 4.1484375 C2.94237329 8.05941421 1.2918779 9.70659279 -1.109375 12.64453125 C-14.73358628 26.66945463 -39.17929893 33.70308709 -58.1015625 36.6953125 C-59.7681519 36.71136091 -61.43499602 36.71358626 -63.1015625 36.6953125 C-63.01592041 36.01130371 -62.93027832 35.32729492 -62.84204102 34.62255859 C-62.44562632 31.43892837 -62.05396106 28.25474744 -61.6640625 25.0703125 C-61.52427979 23.93070068 -61.38449707 22.79108887 -61.24047852 21.61694336 C-60.37765151 14.43284848 -59.70296517 7.30571178 -59.41015625 0.07421875 C-59.1015625 -2.3046875 -59.1015625 -2.3046875 -57.1015625 -4.3046875 C-39.20546806 -10.64288761 -16.30210203 -9.41099265 0 0 Z M-49.1015625 4.6953125 C-49.7615625 11.2953125 -50.4215625 17.8953125 -51.1015625 24.6953125 C-29.31098209 19.01574362 -29.31098209 19.01574362 -10.1015625 7.6953125 C-10.1015625 7.0353125 -10.1015625 6.3753125 -10.1015625 5.6953125 C-22.5188285 1.10037707 -36.38534331 1.41370755 -49.1015625 4.6953125 Z " fill="#040404" transform="translate(233.1015625,62.3046875)"/>
<path d="M0 0 C0.87914062 0.00451172 1.75828125 0.00902344 2.6640625 0.01367188 C4.81773803 0.02537663 6.97137817 0.04330931 9.125 0.0625 C5.18267158 12.66350262 -0.60390702 22.40431946 -12 29.5 C-19.37362043 33.25237592 -26.40297493 33.4706463 -34.26171875 30.99609375 C-38.40782389 29.32064716 -42.15190795 27.54456136 -45.875 25.0625 C-45.57412328 19.04496552 -42.97973381 15.25100389 -38.875 11.0625 C-27.76113363 2.31584705 -13.76992611 -0.13479596 0 0 Z M-31.875 19.0625 C-31.875 19.7225 -31.875 20.3825 -31.875 21.0625 C-25.35082656 22.15205009 -20.77862337 22.56094348 -14.875 19.0625 C-12.06986262 16.86803854 -9.37839227 14.59840385 -6.875 12.0625 C-6.875 11.7325 -6.875 11.4025 -6.875 11.0625 C-15.87330172 10.47565424 -24.91504144 13.17180881 -31.875 19.0625 Z " fill="#060606" transform="translate(318.875,131.9375)"/>
<path d="M0 0 C0.67474365 0.00008057 1.3494873 0.00016113 2.04467773 0.00024414 C4.09249942 -0.00193311 6.1397744 -0.02005866 8.1875 -0.0390625 C9.47849609 -0.04099609 10.76949219 -0.04292969 12.09960938 -0.04492188 C13.28723877 -0.04903076 14.47486816 -0.05313965 15.69848633 -0.05737305 C18.67841509 0.1761122 20.34433113 0.52722119 22.79882812 2.18554688 C24.9888969 6.56568443 23.98467731 12.49138598 23.98413086 17.36132812 C23.98631271 19.54512144 24.00445949 21.72840578 24.0234375 23.91210938 C24.02637249 25.30273265 24.02835658 26.69335832 24.02929688 28.08398438 C24.03340576 29.34903809 24.03751465 30.6140918 24.04174805 31.91748047 C23.81311529 34.99333788 23.56528516 36.69253612 21.79882812 39.18554688 C12.14382102 43.53304297 -0.96663353 41.38352029 -11.20117188 40.18554688 C-12.95820664 38.42851211 -12.33143919 35.95101422 -12.33398438 33.56835938 C-12.33527344 32.40304688 -12.3365625 31.23773438 -12.33789062 30.03710938 C-12.33402344 28.80734375 -12.33015625 27.57757813 -12.32617188 26.31054688 C-12.33003906 25.11945313 -12.33390625 23.92835938 -12.33789062 22.70117188 C-12.31311417 0.05549225 -12.31311417 0.05549225 0 0 Z M-3.20117188 8.18554688 C-3.20117188 16.10554687 -3.20117188 24.02554688 -3.20117188 32.18554688 C3.06882812 32.18554688 9.33882812 32.18554688 15.79882812 32.18554688 C15.79882812 24.26554687 15.79882812 16.34554687 15.79882812 8.18554688 C9.52882813 8.18554688 3.25882813 8.18554688 -3.20117188 8.18554688 Z " fill="#050505" transform="translate(669.201171875,116.814453125)"/>
<path d="M0 0 C1.8203125 1.0703125 1.8203125 1.0703125 3.8203125 3.0703125 C4.04948896 9.35545583 2.01127095 15.66515978 0.2578125 21.6328125 C-0.09313477 22.85967773 -0.09313477 22.85967773 -0.45117188 24.11132812 C-1.02088704 26.09951777 -1.59935664 28.08519549 -2.1796875 30.0703125 C-12.91592197 30.8623298 -19.83017746 29.92028526 -29.1796875 24.0703125 C-29.1796875 23.4103125 -29.1796875 22.7503125 -29.1796875 22.0703125 C-29.8396875 22.0703125 -30.4996875 22.0703125 -31.1796875 22.0703125 C-34.84272158 17.67695387 -37.39447245 12.86950614 -37.1796875 7.0703125 C-29.394446 -5.73766546 -12.48953168 -5.7155484 0 0 Z M-21.9296875 7.5703125 C-23.5384375 8.3128125 -23.5384375 8.3128125 -25.1796875 9.0703125 C-25.57948757 12.88422514 -25.57948757 12.88422514 -23.9296875 14.73828125 C-19.34520771 18.71900142 -16.25475828 19.85715212 -10.1796875 20.0703125 C-8.37651529 16.10333364 -7.68765759 12.3880583 -7.1796875 8.0703125 C-14.60521145 5.78523131 -14.60521145 5.78523131 -21.9296875 7.5703125 Z " fill="#040404" transform="translate(568.1796875,131.9296875)"/>
<path d="M0 0 C1.92682617 -0.03673828 1.92682617 -0.03673828 3.89257812 -0.07421875 C5.13072266 -0.07808594 6.36886719 -0.08195312 7.64453125 -0.0859375 C8.77866455 -0.09415527 9.91279785 -0.10237305 11.08129883 -0.11083984 C14.8644067 0.48087474 16.50551161 1.68662664 19.1875 4.375 C20.13109364 7.20578091 20.44569881 9.2940314 20.5625 12.25 C20.61148438 13.09304687 20.66046875 13.93609375 20.7109375 14.8046875 C19.94222605 18.57940494 18.12798766 19.95692896 15.1875 22.375 C11.98950195 22.99023438 11.98950195 22.99023438 8.42578125 22.96875 C7.14251953 22.96617188 5.85925781 22.96359375 4.53710938 22.9609375 C3.54360474 22.93918457 3.54360474 22.93918457 2.5300293 22.91699219 C0.49495684 22.87489568 -1.53682845 22.87594514 -3.57226562 22.8828125 C-10.90923156 22.80888841 -10.90923156 22.80888841 -13.8125 22.375 C-16.38778248 18.51207629 -16.10704471 15.28553122 -16.0625 10.8125 C-16.07023438 10.03197266 -16.07796875 9.25144531 -16.0859375 8.44726562 C-16.04868414 -2.34689517 -8.8245476 0.00877628 0 0 Z M-6.8125 9.375 C-6.4825 11.025 -6.1525 12.675 -5.8125 14.375 C-0.2025 14.375 5.4075 14.375 11.1875 14.375 C11.5175 12.725 11.8475 11.075 12.1875 9.375 C5.9175 9.375 -0.3525 9.375 -6.8125 9.375 Z " fill="#0C0C0C" transform="translate(672.8125,57.625)"/>
<path d="M0 0 C0.33 0 0.66 0 1 0 C0.67 2.31 0.34 4.62 0 7 C-1.04449911 3.86650268 -0.93423645 3.01031744 0 0 Z " fill="#000000" transform="translate(606,132)"/>
<path d="" fill="#000000" transform="translate(0,0)"/>
<path d="" fill="#000000" transform="translate(0,0)"/>
<path d="" fill="#000000" transform="translate(0,0)"/>
<path d="" fill="#000000" transform="translate(0,0)"/>
<path d="" fill="#000000" transform="translate(0,0)"/>
</svg>
