<?xml version="1.0" encoding="UTF-8"?>
<svg version="1.1" xmlns="http://www.w3.org/2000/svg" width="355" height="447">
<path d="M0 0 C3.90446657 1.64855255 5.90958608 3.47745641 7.8125 7.1875 C10.95082997 16.59195862 12.96065386 26.05541874 12.9375 36 C12.94136719 37.68029297 12.94136719 37.68029297 12.9453125 39.39453125 C12.8125 42.1875 12.8125 42.1875 11.8125 44.1875 C12.38000977 44.42831299 12.94751953 44.66912598 13.53222656 44.91723633 C16.27250636 46.44375408 18.10289291 48.26950967 20.296875 50.51171875 C21.57691406 51.80819336 21.57691406 51.80819336 22.8828125 53.13085938 C23.76710938 54.03642578 24.65140625 54.94199219 25.5625 55.875 C30.91291269 61.33257971 36.24666938 66.70941221 42.05712891 71.67944336 C45.33943838 74.49930784 48.46129656 77.50088954 51.61328125 80.46484375 C53.74052247 82.49582377 53.74052247 82.49582377 56.8125 82.1875 C58.58022229 80.48671813 58.58022229 80.48671813 60.25 78.3125 C62.55567837 75.43427063 64.31338572 73.48094691 67.8125 72.1875 C76.18718356 72.1875 82.03697836 76.29044471 87.875 82.0625 C88.8340625 83.114375 88.8340625 83.114375 89.8125 84.1875 C90.35777344 83.53523438 90.90304688 82.88296875 91.46484375 82.2109375 C97.93288896 74.71463895 105.29206623 67.19802505 115.57421875 65.81640625 C127.06517426 65.55559685 134.05640375 69.86300803 142.28344727 77.55957031 C147.53729658 82.69681655 152.02017776 88.35619333 156.38085938 94.25683594 C157.84437094 96.23048011 159.3352099 98.18134558 160.828125 100.1328125 C178.06344807 122.9898656 191.08096592 148.64829642 203.8125 174.1875 C204.33287842 175.19018921 204.33287842 175.19018921 204.86376953 176.21313477 C205.83677054 178.23800845 206.57869162 180.24322903 207.28515625 182.375 C207.54490234 183.15617188 207.80464844 183.93734375 208.07226562 184.7421875 C208.33716797 185.54914063 208.60207031 186.35609375 208.875 187.1875 C209.14376953 187.99445313 209.41253906 188.80140625 209.68945312 189.6328125 C212.59693064 198.42050016 215.2555389 207.88706679 211.0625 216.75 C209.45846823 219.70982052 207.51360338 221.22072048 204.8125 223.1875 C205.77289185 223.16393433 205.77289185 223.16393433 206.75268555 223.13989258 C209.66836631 223.07732885 212.58390555 223.03844192 215.5 223 C216.50740234 222.97486328 217.51480469 222.94972656 218.55273438 222.92382812 C222.69181101 222.88284717 226.041375 222.9087455 229.95703125 224.32421875 C232.972881 227.35276681 232.79660736 230.22740765 232.83007812 234.35546875 C232.79567029 236.8044967 232.68803195 239.24152888 232.5625 241.6875 C232.53542969 242.51636719 232.50835937 243.34523438 232.48046875 244.19921875 C232.18927789 250.10757531 231.33168839 254.89732874 226.75 259.0625 C224.8125 260.1875 224.8125 260.1875 222.8125 260.1875 C223.16183594 260.8165625 223.51117188 261.445625 223.87109375 262.09375 C224.32613281 262.9496875 224.78117187 263.805625 225.25 264.6875 C225.70246094 265.5228125 226.15492188 266.358125 226.62109375 267.21875 C229.08396453 273.35573948 228.95727232 280.01233501 228.89770508 286.5402832 C228.89452271 287.33332855 228.89134033 288.1263739 228.88806152 288.94345093 C228.87556814 291.54180829 228.85467122 294.13999354 228.83203125 296.73828125 C228.82507421 297.63291769 228.81811718 298.52755413 228.81094933 299.44930077 C228.77368068 304.18234044 228.72974889 308.91526463 228.68041992 313.64819336 C228.63108535 318.50978038 228.60487476 323.37120307 228.58398914 328.23298359 C228.56352279 331.99690801 228.52561318 335.76051763 228.4831295 339.52425194 C228.46590611 341.3153601 228.45512138 343.10654324 228.45118141 344.89772987 C228.41276253 358.40269534 227.26489222 369.20319661 218.16015625 379.890625 C210.32307741 387.558183 201.62127983 391.22139616 190.79296875 392.00390625 C190.01730057 392.06529282 189.24163239 392.12667938 188.44245911 392.18992615 C186.79452015 392.31864679 185.14628745 392.44365386 183.49780273 392.56518555 C181.07259813 392.74462841 178.64866858 392.93662625 176.22460938 393.13085938 C151.84706115 395.03448993 127.47150001 395.38946588 103.03279877 395.37617874 C100.59211594 395.3749839 98.15143736 395.37553803 95.71075439 395.37619019 C61.06569895 395.37421139 26.49278153 394.3754197 -8.12011719 392.89135742 C-9.24400848 392.84405991 -10.36789978 392.79676239 -11.52584839 392.74803162 C-13.63056356 392.65902674 -15.73517145 392.56742561 -17.83963013 392.47254944 C-23.23170786 392.24440441 -28.5851715 392.17140792 -33.9805603 392.31800842 C-47.49327363 392.66695808 -47.49327363 392.66695808 -53.1875 388.1875 C-60.8099941 380.83602792 -62.51626541 370.65559884 -63.375 360.5 C-63.49452026 359.16618286 -63.49452026 359.16618286 -63.61645508 357.80541992 C-64.58828533 345.81046673 -65.01074394 333.49375276 -63.67651367 321.5168457 C-63.12779422 316.20665444 -63.10969045 310.98120622 -63.1953125 305.6484375 C-63.21281733 303.66667169 -63.2297267 301.68490054 -63.24609375 299.703125 C-63.27707651 296.62452055 -63.31274447 293.54619009 -63.35888672 290.46777344 C-63.40139481 287.4654607 -63.42469972 284.46346986 -63.4453125 281.4609375 C-63.46393341 280.54927826 -63.48255432 279.63761902 -63.5017395 278.69833374 C-63.53018662 271.54964733 -62.22088986 266.23758479 -58.1875 260.1875 C-59.280625 259.919375 -60.37375 259.65125 -61.5 259.375 C-66.17818093 257.86846716 -66.17818093 257.86846716 -68.1875 255.1875 C-68.94581262 251.4642082 -68.93148036 247.66755057 -69.0625 243.875 C-69.12179688 242.84181641 -69.18109375 241.80863281 -69.2421875 240.74414062 C-69.47223275 235.14038222 -69.55689421 230.94657523 -66.1875 226.1875 C-63.11058234 224.13622156 -62.25105001 223.91489128 -58.73828125 223.7734375 C-57.89072266 223.73476562 -57.04316406 223.69609375 -56.16992188 223.65625 C-54.84831055 223.60984375 -54.84831055 223.60984375 -53.5 223.5625 C-52.60732422 223.52382812 -51.71464844 223.48515625 -50.79492188 223.4453125 C-48.5926538 223.35109782 -46.39039278 223.26548412 -44.1875 223.1875 C-43.5275 221.5375 -42.8675 219.8875 -42.1875 218.1875 C-41.5275 218.1875 -40.8675 218.1875 -40.1875 218.1875 C-40.07045212 217.5179277 -39.95340424 216.84835541 -39.83280945 216.15849304 C-38.65753802 209.55097111 -37.31683666 203.00140783 -35.83203125 196.45703125 C-35.60966293 195.47135666 -35.38729462 194.48568207 -35.15818787 193.47013855 C-19.14824512 122.76161666 -19.14824512 122.76161666 -4.75 107.625 C-1.08891224 105.57121906 0.62025991 105.52206506 4.8125 106.1875 C21.12482904 112.10401288 35.88112828 127.24209962 46.59375 140.60546875 C47.3259375 141.45753906 48.058125 142.30960938 48.8125 143.1875 C49.4725 143.1875 50.1325 143.1875 50.8125 143.1875 C52.44196228 140.88154616 53.9560897 138.58553293 55.4375 136.1875 C56.06785156 135.18589844 56.06785156 135.18589844 56.7109375 134.1640625 C57.75114592 132.50918546 58.78264051 130.84883712 59.8125 129.1875 C56.43280424 125.11453332 52.95587095 121.28104125 49.1875 117.5625 C42.1875 110.5625 42.1875 110.5625 40.8125 108.1875 C41.03896336 102.4298406 42.61633817 99.53805082 46.375 95.25 C47.20128906 94.29222656 48.02757812 93.33445312 48.87890625 92.34765625 C49.51699219 91.63480469 50.15507812 90.92195313 50.8125 90.1875 C49.19236997 86.11039591 46.275119 83.37836438 43.2109375 80.35546875 C42.65564362 79.80063309 42.10034973 79.24579742 41.52822876 78.67414856 C40.35207558 77.50101211 39.17349724 76.33030271 37.99267578 75.16186523 C36.20946546 73.39674266 34.43421976 71.62391977 32.66015625 69.84960938 C26.88209226 64.08967739 21.07893113 58.42179086 14.8125 53.1875 C14.19552246 52.66889404 13.57854492 52.15028809 12.94287109 51.6159668 C9.11320069 48.40737052 7.03920617 48.14130328 1.93115234 48.26733398 C-1.48904793 48.13845573 -4.49278858 46.95722873 -7.625 45.6875 C-8.29805176 45.42340332 -8.97110352 45.15930664 -9.66455078 44.88720703 C-15.02033192 42.74514122 -20.31034914 40.44642316 -25.5625 38.0625 C-26.2939624 37.73830078 -27.0254248 37.41410156 -27.77905273 37.08007812 C-32.84408531 34.70898157 -32.84408531 34.70898157 -34.6640625 31.9453125 C-34.83679687 31.36523438 -35.00953125 30.78515625 -35.1875 30.1875 C-34.71441406 29.80980469 -34.24132813 29.43210937 -33.75390625 29.04296875 C-28.61159858 24.76272435 -24.51658414 20.05198017 -20.34375 14.8359375 C-15.19892656 8.51675219 -8.67011131 0.51000655 0 0 Z M-1.1875 5.1875 C-6.931025 9.26881622 -12.03108927 13.83796435 -17 18.8125 C-17.82600708 19.63754028 -17.82600708 19.63754028 -18.66870117 20.47924805 C-24.47900384 25.61487915 -24.47900384 25.61487915 -27.1875 32.1875 C-23.60481642 33.33537179 -20.02124346 34.48044193 -16.4375 35.625 C-15.42171875 35.95048828 -14.4059375 36.27597656 -13.359375 36.61132812 C-12.3796875 36.92392578 -11.4 37.23652344 -10.390625 37.55859375 C-9.48989258 37.84661865 -8.58916016 38.13464355 -7.66113281 38.43139648 C-3.77407554 39.6195347 -0.51485116 40.30996105 3.5625 40.25 C4.36171875 40.24097656 5.1609375 40.23195312 5.984375 40.22265625 C6.58765625 40.21105469 7.1909375 40.19945312 7.8125 40.1875 C8.80871729 34.96244196 8.69564807 30.60772901 7.625 25.375 C7.48771484 24.67938965 7.35042969 23.9837793 7.20898438 23.26708984 C5.25813654 12.87290905 5.25813654 12.87290905 -1.1875 5.1875 Z M108.8125 74.1875 C109.4725 75.5075 110.1325 76.8275 110.8125 78.1875 C112.1325 78.1875 113.4525 78.1875 114.8125 78.1875 C117.09489171 75.26428035 117.09489171 75.26428035 118.8125 72.1875 C114.75193859 70.46957017 112.45520496 72.11778127 108.8125 74.1875 Z M119.8125 75.1875 C118.0981382 77.14677063 116.42844832 79.14630212 114.8125 81.1875 C115.90533577 82.22045436 117.01220579 83.23857835 118.125 84.25 C118.73988281 84.81847656 119.35476562 85.38695313 119.98828125 85.97265625 C120.89126953 86.57400391 120.89126953 86.57400391 121.8125 87.1875 C125.21164975 86.05445008 125.86504451 85.06231525 127.8125 82.1875 C126.42372646 78.83129729 124.89572035 77.11451272 121.8125 75.1875 C121.1525 75.1875 120.4925 75.1875 119.8125 75.1875 Z M102.1875 79.5625 C99.58886223 81.84468683 99.58886223 81.84468683 99.8125 84.1875 C101.7725281 85.82426257 101.7725281 85.82426257 103.8125 87.1875 C107.17970387 85.79417426 108.7984524 84.2085714 110.8125 81.1875 C109.52284824 79.81187146 108.18560707 78.47983607 106.8125 77.1875 C104.46968683 76.96386223 104.46968683 76.96386223 102.1875 79.5625 Z M59.8125 86.1875 C60.97465129 88.7046259 61.75848046 90.14002828 63.875 92 C66.46509178 94.92429717 66.51864003 97.36732042 66.8125 101.1875 C63.59028659 99.48162231 61.13468575 97.60834662 58.625 95 C57.696875 94.071875 56.76875 93.14375 55.8125 92.1875 C55.1525 92.1875 54.4925 92.1875 53.8125 92.1875 C51.98748065 94.28996028 51.98748065 94.28996028 50.1875 96.9375 C49.55585938 97.81921875 48.92421875 98.7009375 48.2734375 99.609375 C46.48382495 102.27363371 46.48382495 102.27363371 46.8125 106.1875 C48.46051294 108.31936016 50.07861605 110.19628751 51.9375 112.125 C52.411875 112.63740234 52.88625 113.14980469 53.375 113.67773438 C56.63845484 117.1484627 60.10360772 120.19947551 63.8125 123.1875 C67.17395681 119.11753942 70.1612553 114.86057046 73.125 110.5 C76.86615458 105.01163731 80.65082395 99.56663565 84.5703125 94.203125 C85.8193432 92.17639593 86.382525 90.51565733 86.8125 88.1875 C85.18930325 86.87277053 83.563885 85.56078338 81.9375 84.25 C81.03257812 83.51910156 80.12765625 82.78820312 79.1953125 82.03515625 C76.41008877 79.87546638 75.18822904 79.24761665 71.6875 78.6875 C66.21535461 79.39358328 63.58047446 82.35101691 59.8125 86.1875 Z M128.8125 83.1875 C126.85512224 85.21737323 125.8125 86.37883004 125.8125 89.25 C127.21371522 91.9648545 129.14529257 92.81970132 131.8125 94.1875 C133.4625 92.2075 135.1125 90.2275 136.8125 88.1875 C135.86375 87.3625 134.915 86.5375 133.9375 85.6875 C133.40382812 85.2234375 132.87015625 84.759375 132.3203125 84.28125 C130.85313579 82.99177542 130.85313579 82.99177542 128.8125 83.1875 Z M111.8125 84.1875 C109.61107668 86.6265706 109.61107668 86.6265706 107.8125 89.1875 C110.4525 91.4975 113.0925 93.8075 115.8125 96.1875 C117.4625 94.5375 119.1125 92.8875 120.8125 91.1875 C119.88597299 90.01210004 118.94586613 88.84739423 118 87.6875 C117.47792969 87.0378125 116.95585937 86.388125 116.41796875 85.71875 C114.82045167 83.84240872 114.82045167 83.84240872 111.8125 84.1875 Z M96.8125 85.1875 C95.8225 86.1775 94.8325 87.1675 93.8125 88.1875 C95.21009905 91.73268884 95.21009905 91.73268884 96.8125 95.1875 C99.97365776 93.81766497 100.8052092 93.1984362 102.8125 90.1875 C100.8325 88.5375 98.8525 86.8875 96.8125 85.1875 Z M138.8125 90.1875 C136.66682087 91.91605926 136.66682087 91.91605926 134.8125 94.1875 C134.6548415 96.30792756 134.6548415 96.30792756 135.8125 98.1875 C137.78920607 99.94172772 137.78920607 99.94172772 139.8125 101.1875 C142.43437494 100.13875002 143.60621361 99.53818687 145.0625 97.0625 C145.43375 96.134375 145.43375 96.134375 145.8125 95.1875 C143.5025 93.5375 141.1925 91.8875 138.8125 90.1875 Z M104.8125 92.1875 C103.1625 93.8375 101.5125 95.4875 99.8125 97.1875 C100.98994585 100.71983755 101.76855641 101.05058075 104.875 102.875 C105.60847656 103.31199219 106.34195313 103.74898437 107.09765625 104.19921875 C107.66355469 104.52535156 108.22945312 104.85148437 108.8125 105.1875 C110.1325 103.5375 111.4525 101.8875 112.8125 100.1875 C111.31026416 95.98123966 108.52699966 94.44849979 104.8125 92.1875 Z M120.1875 94.6875 C119.73375 95.1825 119.28 95.6775 118.8125 96.1875 C119.86124998 98.80937494 120.46181313 99.98121361 122.9375 101.4375 C123.55625 101.685 124.175 101.9325 124.8125 102.1875 C126.1325 100.5375 127.4525 98.8875 128.8125 97.1875 C124.73617483 93.04474439 124.73617483 93.04474439 120.1875 94.6875 Z M88.8125 94.1875 C86.3375 97.6525 86.3375 97.6525 83.8125 101.1875 C85.1325 102.5075 86.4525 103.8275 87.8125 105.1875 C90.80574263 104.0899777 91.65860901 103.51067108 93.0625 100.5625 C93.43375 99.386875 93.43375 99.386875 93.8125 98.1875 C92.1625 96.8675 90.5125 95.5475 88.8125 94.1875 Z M147.8125 98.1875 C146.4925 99.5075 145.1725 100.8275 143.8125 102.1875 C145.0873209 105.03133123 146.26387078 107.32504018 148.8125 109.1875 C150.92399645 109.26392709 150.92399645 109.26392709 152.8125 108.1875 C154.09686734 106.2037233 154.09686734 106.2037233 154.8125 104.1875 C151.63710444 100.76171051 151.63710444 100.76171051 147.8125 98.1875 Z M129.8125 100.1875 C128.1678326 102.65076712 128.1678326 102.65076712 126.8125 105.1875 C129.1225 106.8375 131.4325 108.4875 133.8125 110.1875 C134.8025 109.1975 135.7925 108.2075 136.8125 107.1875 C135.52730435 104.32052508 134.24120746 102.21142288 131.8125 100.1875 C131.1525 100.1875 130.4925 100.1875 129.8125 100.1875 Z M115.8125 101.1875 C113.66682087 102.91605926 113.66682087 102.91605926 111.8125 105.1875 C111.64583333 107.35416667 111.64583333 107.35416667 112.8125 109.1875 C114.7962767 110.47186734 114.7962767 110.47186734 116.8125 111.1875 C118.1325 109.8675 119.4525 108.5475 120.8125 107.1875 C119.44266497 104.02634224 118.8234362 103.1947908 115.8125 101.1875 Z M94.8125 103.1875 C93.78236723 104.83571244 92.78135372 106.50253702 91.8125 108.1875 C93.7925 109.1775 93.7925 109.1775 95.8125 110.1875 C95.8125 107.8775 95.8125 105.5675 95.8125 103.1875 C95.4825 103.1875 95.1525 103.1875 94.8125 103.1875 Z M99.8125 103.1875 C100.1425 106.4875 100.4725 109.7875 100.8125 113.1875 C102.4625 111.5375 104.1125 109.8875 105.8125 108.1875 C104.1670622 106.49987149 102.49961423 104.8334651 100.8125 103.1875 C100.4825 103.1875 100.1525 103.1875 99.8125 103.1875 Z M81.8125 104.1875 C81.131875 105.280625 80.45125 106.37375 79.75 107.5 C79.17572266 108.42232422 79.17572266 108.42232422 78.58984375 109.36328125 C77.50137926 111.35883075 77.50137926 111.35883075 78.8125 114.1875 C81.69687779 112.89450306 83.68469421 111.52808637 85.8125 109.1875 C84.5035428 106.06552522 84.5035428 106.06552522 81.8125 104.1875 Z M154.25 108.6875 C153.775625 109.1825 153.30125 109.6775 152.8125 110.1875 C154.20127354 113.54370271 155.72927965 115.26048728 158.8125 117.1875 C159.4725 117.1875 160.1325 117.1875 160.8125 117.1875 C161.77874167 115.50921592 161.77874167 115.50921592 161.8125 113.1875 C160.36104104 110.88982365 158.70819037 109.17346134 156.8125 107.1875 C155.57173698 107.07207803 155.57173698 107.07207803 154.25 108.6875 Z M120.6875 110.0625 C118.59195945 111.96512162 118.59195945 111.96512162 118.8125 114.1875 C120.37105981 115.54462166 120.37105981 115.54462166 122.3125 116.8125 C122.9621875 117.25851563 123.611875 117.70453125 124.28125 118.1640625 C124.7865625 118.50179687 125.291875 118.83953125 125.8125 119.1875 C127.4625 117.2075 129.1125 115.2275 130.8125 113.1875 C129.86375 112.3625 128.915 111.5375 127.9375 110.6875 C127.40382812 110.2234375 126.87015625 109.759375 126.3203125 109.28125 C123.73379896 107.40502256 123.04413619 107.98311513 120.6875 110.0625 Z M138.8125 108.1875 C138.1525 109.8375 137.4925 111.4875 136.8125 113.1875 C138.4625 114.8375 140.1125 116.4875 141.8125 118.1875 C143.1325 117.5275 144.4525 116.8675 145.8125 116.1875 C145.76481597 114.30869128 145.76481597 114.30869128 144.8125 112.1875 C141.83486957 109.92424754 141.83486957 109.92424754 138.8125 108.1875 Z M144.8125 109.1875 C145.8025 110.6725 145.8025 110.6725 146.8125 112.1875 C147.4725 111.8575 148.1325 111.5275 148.8125 111.1875 C147.4925 110.5275 146.1725 109.8675 144.8125 109.1875 Z M2.8125 110.1875 C3.1425 110.8475 3.4725 111.5075 3.8125 112.1875 C5.1325 111.8575 6.4525 111.5275 7.8125 111.1875 C6.1625 110.8575 4.5125 110.5275 2.8125 110.1875 Z M107.8125 110.1875 C104.78732091 113.24308423 104.78732091 113.24308423 103.8125 117.1875 C106.27576712 118.8321674 106.27576712 118.8321674 108.8125 120.1875 C110.4625 118.2075 112.1125 116.2275 113.8125 114.1875 C112.52284824 112.81187146 111.18560707 111.47983607 109.8125 110.1875 C109.1525 110.1875 108.4925 110.1875 107.8125 110.1875 Z M-1.1875 110.1875 C-2.5075 111.1775 -3.8275 112.1675 -5.1875 113.1875 C-4.8575 113.8475 -4.5275 114.5075 -4.1875 115.1875 C-2.8675 114.1975 -1.5475 113.2075 -0.1875 112.1875 C-0.5175 111.5275 -0.8475 110.8675 -1.1875 110.1875 Z M86.6875 113 C84.48710431 115.08694369 84.48710431 115.08694369 84.8125 118.1875 C87.57204128 120.52719988 87.57204128 120.52719988 90.8125 122.1875 C91.8025 121.8575 92.7925 121.5275 93.8125 121.1875 C94.66900653 118.38704954 94.66900653 118.38704954 94.8125 115.1875 C93.12417984 112.7483859 93.12417984 112.7483859 90.8125 111.1875 C88.60061334 110.97118446 88.60061334 110.97118446 86.6875 113 Z M149.8125 114.1875 C152.12482422 116.74999975 152.12482422 116.74999975 154.8125 119.1875 C155.8025 119.1875 156.7925 119.1875 157.8125 119.1875 C155.50017578 116.62500025 155.50017578 116.62500025 152.8125 114.1875 C151.8225 114.1875 150.8325 114.1875 149.8125 114.1875 Z M75.8125 115.1875 C75.131875 116.30125 74.45125 117.415 73.75 118.5625 C73.36714844 119.18898438 72.98429688 119.81546875 72.58984375 120.4609375 C72.33332031 121.03070313 72.07679688 121.60046875 71.8125 122.1875 C72.1425 122.8475 72.4725 123.5075 72.8125 124.1875 C73.658125 123.259375 74.50375 122.33125 75.375 121.375 C75.85066406 120.85292969 76.32632813 120.33085937 76.81640625 119.79296875 C77.14511719 119.26316406 77.47382813 118.73335938 77.8125 118.1875 C77.4825 117.1975 77.1525 116.2075 76.8125 115.1875 C76.4825 115.1875 76.1525 115.1875 75.8125 115.1875 Z M132.8125 115.1875 C131.4925 116.8375 130.1725 118.4875 128.8125 120.1875 C130.26505699 124.01696843 132.24145561 125.30800295 135.8125 127.1875 C137.94052546 124.88183317 137.94052546 124.88183317 139.8125 122.1875 C138.47917905 118.18753714 136.3167173 117.34967663 132.8125 115.1875 Z M-4.1875 119.1875 C-3.13875002 121.80937494 -2.53818687 122.98121361 -0.0625 124.4375 C0.55625 124.685 1.175 124.9325 1.8125 125.1875 C3.4625 122.8775 5.1125 120.5675 6.8125 118.1875 C4.99756707 115.96668788 4.99756707 115.96668788 2.4375 115.875 C-0.61464016 116.23835002 -1.92012056 117.17205161 -4.1875 119.1875 Z M115.8125 116.1875 C114.1625 118.1675 112.5125 120.1475 110.8125 122.1875 C113.1225 124.1675 115.4325 126.1475 117.8125 128.1875 C119.52134005 126.56410195 121.18696717 124.89430947 122.8125 123.1875 C122.8125 122.5275 122.8125 121.8675 122.8125 121.1875 C121.25394019 119.83037834 121.25394019 119.83037834 119.3125 118.5625 C118.6628125 118.11648437 118.013125 117.67046875 117.34375 117.2109375 C116.8384375 116.87320313 116.333125 116.53546875 115.8125 116.1875 Z M147.8125 116.1875 C147.1525 116.8475 146.4925 117.5075 145.8125 118.1875 C146.06510247 121.97653708 148.09099443 123.72936593 150.8125 126.1875 C151.8025 125.8575 152.7925 125.5275 153.8125 125.1875 C154.1425 124.1975 154.4725 123.2075 154.8125 122.1875 C152.5025 120.2075 150.1925 118.2275 147.8125 116.1875 Z M162.8125 117.1875 C162.8125 118.5075 162.8125 119.8275 162.8125 121.1875 C165.73571965 123.46989171 165.73571965 123.46989171 168.8125 125.1875 C167.68798273 122.2155615 166.58956209 119.85309313 164.8125 117.1875 C164.1525 117.1875 163.4925 117.1875 162.8125 117.1875 Z M8.8125 120.1875 C7.966875 121.115625 7.12125 122.04375 6.25 123 C5.77433594 123.52207031 5.29867187 124.04414063 4.80859375 124.58203125 C4.47988281 125.11183594 4.15117188 125.64164062 3.8125 126.1875 C4.94554992 129.58664975 5.93768475 130.24004451 8.8125 132.1875 C12.17970387 130.79417426 13.7984524 129.2085714 15.8125 126.1875 C13.5025 124.2075 11.1925 122.2275 8.8125 120.1875 Z M80.8125 120.1875 C79.45537834 121.74605981 79.45537834 121.74605981 78.1875 123.6875 C77.74148437 124.3371875 77.29546875 124.986875 76.8359375 125.65625 C76.49820313 126.1615625 76.16046875 126.666875 75.8125 127.1875 C76.4725 127.8475 77.1325 128.5075 77.8125 129.1875 C83.69260513 128.84226602 83.69260513 128.84226602 88.8125 126.1875 C87.8604279 125.18153703 86.90062654 124.18288437 85.9375 123.1875 C85.13699219 122.3521875 85.13699219 122.3521875 84.3203125 121.5 C82.89425012 119.96864478 82.89425012 119.96864478 80.8125 120.1875 Z M99.8125 120.1875 C99.1525 122.4975 98.4925 124.8075 97.8125 127.1875 C99.1325 127.5175 100.4525 127.8475 101.8125 128.1875 C102.8025 126.8675 103.7925 125.5475 104.8125 124.1875 C103.1625 122.8675 101.5125 121.5475 99.8125 120.1875 Z M158.8125 121.1875 C160.20582574 124.55470387 161.7914286 126.1734524 164.8125 128.1875 C165.4725 127.8575 166.1325 127.5275 166.8125 127.1875 C165.8604279 126.18153703 164.90062654 125.18288437 163.9375 124.1875 C163.13699219 123.3521875 163.13699219 123.3521875 162.3203125 122.5 C160.89425012 120.96864478 160.89425012 120.96864478 158.8125 121.1875 Z M-7.1875 123.1875 C-8.5075 125.8275 -9.8275 128.4675 -11.1875 131.1875 C-8.7125 132.6725 -8.7125 132.6725 -6.1875 134.1875 C-4.5375 132.2075 -2.8875 130.2275 -1.1875 128.1875 C-2.46812485 126.4800002 -3.80517557 124.81376404 -5.1875 123.1875 C-5.8475 123.1875 -6.5075 123.1875 -7.1875 123.1875 Z M141.8125 123.1875 C140.4925 124.8375 139.1725 126.4875 137.8125 128.1875 C139.26505699 132.01696843 141.24145561 133.30800295 144.8125 135.1875 C146.1325 133.5375 147.4525 131.8875 148.8125 130.1875 C147.35994301 126.35803157 145.38354439 125.06699705 141.8125 123.1875 Z M122.6875 127.1875 C122.06875 127.8475 121.45 128.5075 120.8125 129.1875 C122.26505699 133.01696843 124.24145561 134.30800295 127.8125 136.1875 C129.4625 134.2075 131.1125 132.2275 132.8125 130.1875 C131.86375 129.3625 130.915 128.5375 129.9375 127.6875 C129.40382812 127.2234375 128.87015625 126.759375 128.3203125 126.28125 C125.68185891 124.36734584 125.02174028 124.99056797 122.6875 127.1875 Z M155.8125 125.1875 C155.1525 126.5075 154.4925 127.8275 153.8125 129.1875 C156.1225 130.8375 158.4325 132.4875 160.8125 134.1875 C161.8025 132.8675 162.7925 131.5475 163.8125 130.1875 C161.50017578 127.62500025 161.50017578 127.62500025 158.8125 125.1875 C157.8225 125.1875 156.8325 125.1875 155.8125 125.1875 Z M105.8125 126.1875 C104.1678326 128.65076712 104.1678326 128.65076712 102.8125 131.1875 C105.1225 132.8375 107.4325 134.4875 109.8125 136.1875 C111.1325 135.5275 112.4525 134.8675 113.8125 134.1875 C113.8125 133.1975 113.8125 132.2075 113.8125 131.1875 C110.35282783 127.52829297 110.35282783 127.52829297 105.8125 126.1875 Z M14.6875 131.1875 C14.06875 131.8475 13.45 132.5075 12.8125 133.1875 C14.20582574 136.55470387 15.7914286 138.1734524 18.8125 140.1875 C21.24520079 139.24580937 22.53687686 138.65768066 23.875 136.375 C24.03013868 133.86805131 24.03013868 133.86805131 21.5 131.4375 C18.00848142 128.45146803 18.00848142 128.45146803 14.6875 131.1875 Z M0.8125 130.1875 C-1.31552546 132.49316683 -1.31552546 132.49316683 -3.1875 135.1875 C-1.94203595 138.92389216 -0.55345047 139.37506513 2.8125 141.1875 C4.1325 139.5375 5.4525 137.8875 6.8125 136.1875 C5.76375002 133.56562506 5.16318687 132.39378639 2.6875 130.9375 C2.06875 130.69 1.45 130.4425 0.8125 130.1875 Z M86.8125 135.1875 C88.1325 136.5075 89.4525 137.8275 90.8125 139.1875 C92.4625 137.5375 94.1125 135.8875 95.8125 134.1875 C95.4825 133.1975 95.1525 132.2075 94.8125 131.1875 C91.53091516 131.1875 89.43368892 133.36406423 86.8125 135.1875 Z M150.8125 131.1875 C149.43017557 132.81376404 148.09312485 134.4800002 146.8125 136.1875 C148.10549694 139.07187779 149.47191363 141.05969421 151.8125 143.1875 C155.81246286 141.85417905 156.65032337 139.6917173 158.8125 136.1875 C157.86375 135.3625 156.915 134.5375 155.9375 133.6875 C155.40382812 133.2234375 154.87015625 132.759375 154.3203125 132.28125 C152.85313579 130.99177542 152.85313579 130.99177542 150.8125 131.1875 Z M169.8125 131.1875 C170.8025 132.5075 171.7925 133.8275 172.8125 135.1875 C173.4725 134.8575 174.1325 134.5275 174.8125 134.1875 C173.43764468 132.64583358 173.43764468 132.64583358 171.8125 131.1875 C171.1525 131.1875 170.4925 131.1875 169.8125 131.1875 Z M100.8125 132.1875 C101.1425 133.1775 101.4725 134.1675 101.8125 135.1875 C102.4725 134.8575 103.1325 134.5275 103.8125 134.1875 C102.8225 133.5275 101.8325 132.8675 100.8125 132.1875 Z M165.8125 132.1875 C164.3275 134.6625 164.3275 134.6625 162.8125 137.1875 C164.4625 138.8375 166.1125 140.4875 167.8125 142.1875 C169.81233534 141.39632096 169.81233534 141.39632096 171.8125 140.1875 C172.1425 139.1975 172.4725 138.2075 172.8125 137.1875 C170.5025 135.5375 168.1925 133.8875 165.8125 132.1875 Z M69.8125 133.1875 C69.4825 134.5075 69.1525 135.8275 68.8125 137.1875 C70.7925 138.8375 72.7725 140.4875 74.8125 142.1875 C79.09350646 139.15103569 79.09350646 139.15103569 80.8125 134.1875 C77.1825 133.8575 73.5525 133.5275 69.8125 133.1875 Z M133.8125 133.1875 C132.43017557 134.81376404 131.09312485 136.4800002 129.8125 138.1875 C132.2875 141.1575 132.2875 141.1575 134.8125 144.1875 C138.17970387 142.79417426 139.7984524 141.2085714 141.8125 138.1875 C140.86375 137.3625 139.915 136.5375 138.9375 135.6875 C138.40382812 135.2234375 137.87015625 134.759375 137.3203125 134.28125 C135.85313579 132.99177542 135.85313579 132.99177542 133.8125 133.1875 Z M-12.1875 134.1875 C-14.95407876 138.86497741 -14.95407876 138.86497741 -14.1875 144.1875 C-12.2075 141.5475 -10.2275 138.9075 -8.1875 136.1875 C-9.5075 135.5275 -10.8275 134.8675 -12.1875 134.1875 Z M98.8125 135.1875 C97.1625 137.1675 95.5125 139.1475 93.8125 141.1875 C96.39034846 143.83502004 98.72898098 146.13182065 101.8125 148.1875 C103.1325 146.5375 104.4525 144.8875 105.8125 143.1875 C104.32152342 139.3922869 102.05549151 137.57707269 98.8125 135.1875 Z M115.8125 135.1875 C114.17573743 137.1475281 114.17573743 137.1475281 112.8125 139.1875 C114.7925 140.8375 116.7725 142.4875 118.8125 144.1875 C120.1325 143.5275 121.4525 142.8675 122.8125 142.1875 C122.8125 141.1975 122.8125 140.2075 122.8125 139.1875 C119.77594042 136.13673157 119.77594042 136.13673157 115.8125 135.1875 Z M104.8125 136.1875 C106.1325 137.5075 107.4525 138.8275 108.8125 140.1875 C108.1525 138.8675 107.4925 137.5475 106.8125 136.1875 C106.1525 136.1875 105.4925 136.1875 104.8125 136.1875 Z M8.8125 137.1875 C7.4925 138.5075 6.1725 139.8275 4.8125 141.1875 C6.31473584 145.39376034 9.09800034 146.92650021 12.8125 149.1875 C14.1325 147.5375 15.4525 145.8875 16.8125 144.1875 C14.42292731 140.94450849 12.6077131 138.67847658 8.8125 137.1875 Z M25.8125 137.1875 C24.45073419 139.16825027 23.11656884 141.16829663 21.8125 143.1875 C23.7925 144.8375 25.7725 146.4875 27.8125 148.1875 C29.8287233 147.47186734 29.8287233 147.47186734 31.8125 146.1875 C32.61778889 144.13749129 32.61778889 144.13749129 32.8125 142.1875 C29.63912252 138.94098408 29.63912252 138.94098408 25.8125 137.1875 Z M58.8125 137.1875 C59.8125 139.1875 59.8125 139.1875 59.8125 139.1875 Z M65.8125 138.1875 C64.966875 139.115625 64.12125 140.04375 63.25 141 C62.77433594 141.52207031 62.29867187 142.04414063 61.80859375 142.58203125 C61.47988281 143.11183594 61.15117187 143.64164063 60.8125 144.1875 C61.95268002 147.60804006 62.73708518 148.4301201 65.8125 150.1875 C68.71837277 150.09944325 69.60102713 149.40626503 71.625 147.3125 C72.016875 146.61125 72.40875 145.91 72.8125 145.1875 C71.47917905 141.18753714 69.3167173 140.34967663 65.8125 138.1875 Z M83.8125 138.1875 C81.8325 140.4975 79.8525 142.8075 77.8125 145.1875 C80.2875 146.6725 80.2875 146.6725 82.8125 148.1875 C84.7925 145.8775 86.7725 143.5675 88.8125 141.1875 C87.1625 140.1975 85.5125 139.2075 83.8125 138.1875 Z M-7.1875 139.1875 C-8.64840788 140.7229878 -8.64840788 140.7229878 -9.875 142.6875 C-10.53048828 143.66203125 -10.53048828 143.66203125 -11.19921875 144.65625 C-11.52535156 145.1615625 -11.85148437 145.666875 -12.1875 146.1875 C-10.8675 147.5075 -9.5475 148.8275 -8.1875 150.1875 C-4.3922869 148.69652342 -2.57707269 146.43049151 -0.1875 143.1875 C-1.99972534 141.1250006 -1.99972534 141.1250006 -4.1875 139.1875 C-5.1775 139.1875 -6.1675 139.1875 -7.1875 139.1875 Z M57.8125 139.1875 C57.8125 142.1875 57.8125 142.1875 57.8125 142.1875 Z M160.8125 139.1875 C159.1625 141.1675 157.5125 143.1475 155.8125 145.1875 C158.2875 148.1575 158.2875 148.1575 160.8125 151.1875 C163.39583229 148.93791666 163.39583229 148.93791666 165.8125 146.1875 C165.8125 144.8675 165.8125 143.5475 165.8125 142.1875 C163.38577433 140.39780974 163.38577433 140.39780974 160.8125 139.1875 Z M174.8125 139.1875 C173.7864266 140.50087396 172.78522675 141.83414105 171.8125 143.1875 C173.0873209 146.03133123 174.26387078 148.32504018 176.8125 150.1875 C178.92399645 150.26392709 178.92399645 150.26392709 180.8125 149.1875 C181.94234161 147.17288629 181.94234161 147.17288629 182.8125 145.1875 C181.66925161 144.1845458 180.52282809 143.18520973 179.375 142.1875 C178.73691406 141.630625 178.09882813 141.07375 177.44140625 140.5 C176.03136821 139.08292935 176.03136821 139.08292935 174.8125 139.1875 Z M110.8125 140.1875 C110.8125 141.1775 110.8125 142.1675 110.8125 143.1875 C112.3479878 144.64840788 112.3479878 144.64840788 114.3125 145.875 C114.9621875 146.31199219 115.611875 146.74898437 116.28125 147.19921875 C116.7865625 147.52535156 117.291875 147.85148438 117.8125 148.1875 C117.8125 147.1975 117.8125 146.2075 117.8125 145.1875 C116.2770122 143.72659212 116.2770122 143.72659212 114.3125 142.5 C113.6628125 142.06300781 113.013125 141.62601563 112.34375 141.17578125 C111.8384375 140.84964844 111.333125 140.52351562 110.8125 140.1875 Z M142.8125 140.1875 C141.45422029 141.83389965 140.11995749 143.50045807 138.8125 145.1875 C140.10549694 148.07187779 141.47191363 150.05969421 143.8125 152.1875 C146.80574263 151.0899777 147.65860901 150.51067108 149.0625 147.5625 C149.43375 146.386875 149.43375 146.386875 149.8125 145.1875 C146.63912252 141.94098408 146.63912252 141.94098408 142.8125 140.1875 Z M54.8125 143.1875 C55.8125 145.1875 55.8125 145.1875 55.8125 145.1875 Z M107.8125 143.1875 C105.3375 146.6525 105.3375 146.6525 102.8125 150.1875 C105.4525 152.1675 108.0925 154.1475 110.8125 156.1875 C112.4625 153.8775 114.1125 151.5675 115.8125 149.1875 C113.1725 147.2075 110.5325 145.2275 107.8125 143.1875 Z M124.8125 143.1875 C124.1525 144.5075 123.4925 145.8275 122.8125 147.1875 C124.7925 148.8375 126.7725 150.4875 128.8125 152.1875 C130.1325 150.8675 131.4525 149.5475 132.8125 148.1875 C131.86375 147.3625 130.915 146.5375 129.9375 145.6875 C129.40382812 145.2234375 128.87015625 144.759375 128.3203125 144.28125 C126.85313579 142.99177542 126.85313579 142.99177542 124.8125 143.1875 Z M90.8125 144.1875 C89.1625 146.1675 87.5125 148.1475 85.8125 150.1875 C87.26505699 154.01696843 89.24145561 155.30800295 92.8125 157.1875 C94.7925 154.8775 96.7725 152.5675 98.8125 150.1875 C96.1725 148.2075 93.5325 146.2275 90.8125 144.1875 Z M1.8125 145.1875 C-0.1675 147.4975 -2.1475 149.8075 -4.1875 152.1875 C-2.30406068 155.95437864 -1.49617531 156.98171646 1.8125 159.1875 C5.6077131 157.69652342 7.42292731 155.43049151 9.8125 152.1875 C7.23465154 149.53997996 4.89601902 147.24317935 1.8125 145.1875 Z M18.8125 145.1875 C16.8325 148.1575 16.8325 148.1575 14.8125 151.1875 C16.7925 152.8375 18.7725 154.4875 20.8125 156.1875 C22.8287233 155.47186734 22.8287233 155.47186734 24.8125 154.1875 C25.1425 152.8675 25.4725 151.5475 25.8125 150.1875 C23.5025 148.5375 21.1925 146.8875 18.8125 145.1875 Z M34.8125 145.1875 C33.3275 147.1675 33.3275 147.1675 31.8125 149.1875 C33.26505699 153.01696843 35.24145561 154.30800295 38.8125 156.1875 C39.8025 154.8675 40.7925 153.5475 41.8125 152.1875 C40.35994301 148.35803157 38.38354439 147.06699705 34.8125 145.1875 Z M168.8125 146.1875 C167.9875 147.13625 167.1625 148.085 166.3125 149.0625 C165.8484375 149.59617188 165.384375 150.12984375 164.90625 150.6796875 C163.61677542 152.14686421 163.61677542 152.14686421 163.8125 154.1875 C165.77177063 155.9018618 167.77130212 157.57155168 169.8125 159.1875 C173.64196843 157.73494301 174.93300295 155.75854439 176.8125 152.1875 C174.1725 150.2075 171.5325 148.2275 168.8125 146.1875 Z M74.8125 147.1875 C73.0981382 149.14677063 71.42844832 151.14630212 69.8125 153.1875 C72.7825 155.1675 72.7825 155.1675 75.8125 157.1875 C77.4625 154.8775 79.1125 152.5675 80.8125 150.1875 C78.14002366 147.84462582 78.14002366 147.84462582 74.8125 147.1875 Z M-15.1875 148.1875 C-18.43466062 151.67533514 -18.43466062 151.67533514 -19.1875 156.1875 C-16.74253957 157.90461243 -16.74253957 157.90461243 -14.1875 159.1875 C-12.5375 157.5375 -10.8875 155.8875 -9.1875 154.1875 C-10.23624998 151.56562506 -10.83681313 150.39378639 -13.3125 148.9375 C-13.93125 148.69 -14.55 148.4425 -15.1875 148.1875 Z M58.8125 148.1875 C58.1525 149.5075 57.4925 150.8275 56.8125 152.1875 C59.7825 154.1675 59.7825 154.1675 62.8125 156.1875 C63.8025 154.8675 64.7925 153.5475 65.8125 152.1875 C62.71922105 149.21074541 62.71922105 149.21074541 58.8125 148.1875 Z M183.8125 148.1875 C182.3275 150.6625 182.3275 150.6625 180.8125 153.1875 C182.4625 154.8375 184.1125 156.4875 185.8125 158.1875 C186.8025 157.8575 187.7925 157.5275 188.8125 157.1875 C187.72181332 153.41204612 186.9041909 150.71706528 183.8125 148.1875 Z M119.8125 149.1875 C121.7925 151.4975 123.7725 153.8075 125.8125 156.1875 C126.4725 155.5275 127.1325 154.8675 127.8125 154.1875 C126.86375 153.3625 125.915 152.5375 124.9375 151.6875 C124.40382812 151.2234375 123.87015625 150.759375 123.3203125 150.28125 C121.85313579 148.99177542 121.85313579 148.99177542 119.8125 149.1875 Z M152.8125 149.1875 C151.12161778 151.16706942 149.45419528 153.16695196 147.8125 155.1875 C149.1325 156.8375 150.4525 158.4875 151.8125 160.1875 C155.64196843 158.73494301 156.93300295 156.75854439 158.8125 153.1875 C156.10246707 150.51418287 156.10246707 150.51418287 152.8125 149.1875 Z M134.8125 150.1875 C133.3275 152.6625 133.3275 152.6625 131.8125 155.1875 C133.7925 156.8375 135.7725 158.4875 137.8125 160.1875 C139.1325 158.8675 140.4525 157.5475 141.8125 156.1875 C139.5025 154.2075 137.1925 152.2275 134.8125 150.1875 Z M117.8125 152.1875 C116.1625 154.1675 114.5125 156.1475 112.8125 158.1875 C114.7925 159.8375 116.7725 161.4875 118.8125 163.1875 C121.43437494 162.13875002 122.60621361 161.53818687 124.0625 159.0625 C124.43375 158.134375 124.43375 158.134375 124.8125 157.1875 C122.5025 155.5375 120.1925 153.8875 117.8125 152.1875 Z M43.8125 153.1875 C42.16694301 154.41559091 42.16694301 154.41559091 40.8125 156.1875 C40.74495166 158.25349083 40.74495166 158.25349083 41.8125 160.1875 C43.78920607 161.94172772 43.78920607 161.94172772 45.8125 163.1875 C47.1325 162.5275 48.4525 161.8675 49.8125 161.1875 C48.52817661 157.69044871 48.52817661 157.69044871 46.8125 154.1875 C45.8225 153.8575 44.8325 153.5275 43.8125 153.1875 Z M99.8125 153.1875 C98.1625 155.1675 96.5125 157.1475 94.8125 159.1875 C97.06208334 161.77083229 97.06208334 161.77083229 99.8125 164.1875 C101.1325 164.1875 102.4525 164.1875 103.8125 164.1875 C106.08127535 161.76869071 106.08127535 161.76869071 107.8125 159.1875 C105.30179246 155.51862448 105.30179246 155.51862448 101.5625 153.375 C100.985 153.313125 100.4075 153.25125 99.8125 153.1875 Z M11.8125 154.1875 C9.8325 156.4975 7.8525 158.8075 5.8125 161.1875 C7.90149822 165.36549643 8.86794612 166.11141901 12.8125 168.1875 C14.7925 165.8775 16.7725 163.5675 18.8125 161.1875 C16.72350178 157.00950357 15.75705388 156.26358099 11.8125 154.1875 Z M27.8125 154.1875 C25.61107668 156.6265706 25.61107668 156.6265706 23.8125 159.1875 C26.1225 160.8375 28.4325 162.4875 30.8125 164.1875 C32.4625 162.2075 34.1125 160.2275 35.8125 158.1875 C32.32466486 154.94033938 32.32466486 154.94033938 27.8125 154.1875 Z M80.6875 156.1875 C80.06875 156.8475 79.45 157.5075 78.8125 158.1875 C80.26505699 162.01696843 82.24145561 163.30800295 85.8125 165.1875 C87.4625 163.2075 89.1125 161.2275 90.8125 159.1875 C89.86375 158.3625 88.915 157.5375 87.9375 156.6875 C87.40382812 156.2234375 86.87015625 155.759375 86.3203125 155.28125 C83.68185891 153.36734584 83.02174028 153.99056797 80.6875 156.1875 Z M-7.1875 155.1875 C-8.56982443 156.81376404 -9.90687515 158.4800002 -11.1875 160.1875 C-9.68526416 164.39376034 -6.90199966 165.92650021 -3.1875 168.1875 C-1.8675 166.5375 -0.5475 164.8875 0.8125 163.1875 C-0.62827046 159.82570226 -2.43500021 157.59593732 -5.1875 155.1875 C-5.8475 155.1875 -6.5075 155.1875 -7.1875 155.1875 Z M66.8125 155.1875 C66.1525 156.5075 65.4925 157.8275 64.8125 159.1875 C67.90577895 162.16425459 67.90577895 162.16425459 71.8125 163.1875 C72.4725 161.8675 73.1325 160.5475 73.8125 159.1875 C70.71922105 156.21074541 70.71922105 156.21074541 66.8125 155.1875 Z M178.8125 155.1875 C176.3375 158.6525 176.3375 158.6525 173.8125 162.1875 C175.1325 163.8375 176.4525 165.4875 177.8125 167.1875 C181.64196843 165.73494301 182.93300295 163.75854439 184.8125 160.1875 C182.8325 158.5375 180.8525 156.8875 178.8125 155.1875 Z M158.25 158.6875 C157.0434375 159.925 157.0434375 159.925 155.8125 161.1875 C157.25327046 164.54929774 159.06000021 166.77906268 161.8125 169.1875 C162.4725 169.1875 163.1325 169.1875 163.8125 169.1875 C165.16962166 167.62894019 165.16962166 167.62894019 166.4375 165.6875 C166.88351562 165.0378125 167.32953125 164.388125 167.7890625 163.71875 C168.12679687 163.2134375 168.46453125 162.708125 168.8125 162.1875 C167.66925161 161.1845458 166.52282809 160.18520973 165.375 159.1875 C164.73691406 158.630625 164.09882813 158.07375 163.44140625 157.5 C160.70454016 155.29475538 161.04030831 155.96524799 158.25 158.6875 Z M129.8125 157.1875 C130.96423355 159.65550047 131.86033565 161.23533565 133.8125 163.1875 C134.8025 162.8575 135.7925 162.5275 136.8125 162.1875 C133.63912252 158.94098408 133.63912252 158.94098408 129.8125 157.1875 Z M-20.1875 158.1875 C-21.77456842 162.2952065 -22.28941901 163.77982396 -21.1875 168.1875 C-19.5375 165.8775 -17.8875 163.5675 -16.1875 161.1875 C-17.5075 160.1975 -18.8275 159.2075 -20.1875 158.1875 Z M144.8125 159.1875 C143.8225 160.1775 142.8325 161.1675 141.8125 162.1875 C142.86124998 164.80937494 143.46181313 165.98121361 145.9375 167.4375 C146.55625 167.685 147.175 167.9325 147.8125 168.1875 C148.8025 166.5375 149.7925 164.8875 150.8125 163.1875 C148.8325 161.8675 146.8525 160.5475 144.8125 159.1875 Z M189.8125 159.1875 C190.1425 160.1775 190.4725 161.1675 190.8125 162.1875 C190.8125 161.1975 190.8125 160.2075 190.8125 159.1875 C190.4825 159.1875 190.1525 159.1875 189.8125 159.1875 Z M126.8125 160.1875 C125.4925 161.8375 124.1725 163.4875 122.8125 165.1875 C123.9100223 168.18074263 124.48932892 169.03360901 127.4375 170.4375 C128.613125 170.80875 128.613125 170.80875 129.8125 171.1875 C131.1325 169.8675 132.4525 168.5475 133.8125 167.1875 C132.35994301 163.35803157 130.38354439 162.06699705 126.8125 160.1875 Z M36.8125 161.1875 C35.43017557 162.81376404 34.09312485 164.4800002 32.8125 166.1875 C34.4625 167.8375 36.1125 169.4875 37.8125 171.1875 C40.43437494 170.13875002 41.60621361 169.53818687 43.0625 167.0625 C43.43375 166.134375 43.43375 166.134375 43.8125 165.1875 C40.71922105 162.21074541 40.71922105 162.21074541 36.8125 161.1875 Z M109.8125 161.1875 C108.0981382 163.14677063 106.42844832 165.14630212 104.8125 167.1875 C107.7825 170.6525 107.7825 170.6525 110.8125 174.1875 C113.39583229 171.93791666 113.39583229 171.93791666 115.8125 169.1875 C116.2392896 165.21150691 116.2392896 165.21150691 113.9375 162.9375 C112.0139965 160.97559758 112.0139965 160.97559758 109.8125 161.1875 Z M20.8125 162.1875 C19.76233987 163.32784008 18.74659804 164.50006404 17.75 165.6875 C16.92822266 166.66203125 16.92822266 166.66203125 16.08984375 167.65625 C15.66832031 168.1615625 15.24679688 168.666875 14.8125 169.1875 C16.25884713 172.57064582 16.25884713 172.57064582 19.4375 174.4375 C20.613125 174.80875 20.613125 174.80875 21.8125 175.1875 C23.7925 172.5475 25.7725 169.9075 27.8125 167.1875 C24.63912252 163.94098408 24.63912252 163.94098408 20.8125 162.1875 Z M75.8125 162.1875 C74.17573743 164.1475281 74.17573743 164.1475281 72.8125 166.1875 C75.1225 168.1675 77.4325 170.1475 79.8125 172.1875 C81.1325 170.5375 82.4525 168.8875 83.8125 167.1875 C82.86375 166.3625 81.915 165.5375 80.9375 164.6875 C80.40382812 164.2234375 79.87015625 163.759375 79.3203125 163.28125 C77.85313579 161.99177542 77.85313579 161.99177542 75.8125 162.1875 Z M91.8125 162.1875 C90.42311923 164.14897874 89.0864589 166.14916576 87.8125 168.1875 C89.7925 169.8375 91.7725 171.4875 93.8125 173.1875 C96.43437494 172.13875002 97.60621361 171.53818687 99.0625 169.0625 C99.43375 168.134375 99.43375 168.134375 99.8125 167.1875 C98.86375 166.3625 97.915 165.5375 96.9375 164.6875 C96.40382812 164.2234375 95.87015625 163.759375 95.3203125 163.28125 C93.85313579 161.99177542 93.85313579 161.99177542 91.8125 162.1875 Z M50.8125 163.1875 C49.8225 164.6725 49.8225 164.6725 48.8125 166.1875 C51.4525 168.1675 54.0925 170.1475 56.8125 172.1875 C57.4725 171.5275 58.1325 170.8675 58.8125 170.1875 C58.63019828 167.36182328 58.01872122 166.37997314 55.9375 164.4375 C53.79243045 162.93398994 53.79243045 162.93398994 50.8125 163.1875 Z M185.8125 163.1875 C184.43017557 164.81376404 183.09312485 166.4800002 181.8125 168.1875 C183.30347658 171.9827131 185.56950849 173.79792731 188.8125 176.1875 C190.4625 174.2075 192.1125 172.2275 193.8125 170.1875 C192.42372646 166.83129729 190.89572035 165.11451272 187.8125 163.1875 C187.1525 163.1875 186.4925 163.1875 185.8125 163.1875 Z M-14.1875 164.1875 C-15.54462166 165.74605981 -15.54462166 165.74605981 -16.8125 167.6875 C-17.59625 168.8425 -18.38 169.9975 -19.1875 171.1875 C-16.8775 173.1675 -14.5675 175.1475 -12.1875 177.1875 C-9.62500025 174.87517578 -9.62500025 174.87517578 -7.1875 172.1875 C-6.8564011 168.9644076 -6.8564011 168.9644076 -9.5625 166.5 C-11.85456542 163.96715649 -11.85456542 163.96715649 -14.1875 164.1875 Z M0.6875 167.1875 C0.06875 167.8475 -0.55 168.5075 -1.1875 169.1875 C0.10549694 172.07187779 1.47191363 174.05969421 3.8125 176.1875 C6.28050047 175.03576645 7.86033565 174.13966435 9.8125 172.1875 C9.62761956 169.32185314 9.02023139 168.37512835 6.875 166.4375 C3.81289789 164.58168054 3.33136664 164.69915493 0.6875 167.1875 Z M138.8125 166.1875 C140.4625 167.8375 142.1125 169.4875 143.8125 171.1875 C143.8125 170.1975 143.8125 169.2075 143.8125 168.1875 C141.3375 167.1975 141.3375 167.1975 138.8125 166.1875 Z M150.1875 167.5625 C148.59718592 169.08718321 148.59718592 169.08718321 148.8125 171.1875 C150.59973941 172.77205866 150.59973941 172.77205866 152.8125 174.3125 C153.555 174.85132813 154.2975 175.39015625 155.0625 175.9453125 C155.64 176.35523438 156.2175 176.76515625 156.8125 177.1875 C157.8025 175.8675 158.7925 174.5475 159.8125 173.1875 C158.42372646 169.83129729 156.89572035 168.11451272 153.8125 166.1875 C151.71218321 165.97218592 151.71218321 165.97218592 150.1875 167.5625 Z M170.8125 166.1875 C169.45537834 167.74605981 169.45537834 167.74605981 168.1875 169.6875 C167.74148438 170.3371875 167.29546875 170.986875 166.8359375 171.65625 C166.49820313 172.1615625 166.16046875 172.666875 165.8125 173.1875 C167.19127472 174.72786437 167.19127472 174.72786437 168.8125 176.1875 C170.84145838 176.32837999 170.84145838 176.32837999 172.8125 175.1875 C175.06100483 172.71088502 175.06100483 172.71088502 176.8125 170.1875 C175.52284824 168.81187146 174.18560707 167.47983607 172.8125 166.1875 C172.1525 166.1875 171.4925 166.1875 170.8125 166.1875 Z M45.8125 168.1875 C44.42311923 170.14897874 43.0864589 172.14916576 41.8125 174.1875 C43.7925 176.1675 45.7725 178.1475 47.8125 180.1875 C50.28050047 179.03576645 51.86033565 178.13966435 53.8125 176.1875 C53.86331138 174.21168332 53.86331138 174.21168332 52.8125 172.1875 C49.77623926 169.12847032 49.77623926 169.12847032 45.8125 168.1875 Z M29.8125 169.1875 C27.5025 171.4975 25.1925 173.8075 22.8125 176.1875 C24.90149822 180.36549643 25.86794612 181.11141901 29.8125 183.1875 C31.7925 180.8775 33.7725 178.5675 35.8125 176.1875 C33.92906068 172.42062136 33.12117531 171.39328354 29.8125 169.1875 Z M70.8125 169.1875 C71.4725 170.5075 72.1325 171.8275 72.8125 173.1875 C72.8125 172.1975 72.8125 171.2075 72.8125 170.1875 C72.1525 169.8575 71.4925 169.5275 70.8125 169.1875 Z M119.8125 169.1875 C118.1625 171.1675 116.5125 173.1475 114.8125 175.1875 C116.35123177 178.90610179 117.28761388 179.54383541 120.8125 182.1875 C122.7925 179.5475 124.7725 176.9075 126.8125 174.1875 C124.5025 172.5375 122.1925 170.8875 119.8125 169.1875 Z M136.8125 169.1875 C133.78732091 172.24308423 133.78732091 172.24308423 132.8125 176.1875 C135.27576712 177.8321674 135.27576712 177.8321674 137.8125 179.1875 C139.4625 177.2075 141.1125 175.2275 142.8125 173.1875 C141.52284824 171.81187146 140.18560707 170.47983607 138.8125 169.1875 C138.1525 169.1875 137.4925 169.1875 136.8125 169.1875 Z M60.8125 170.1875 C60.1525 171.5075 59.4925 172.8275 58.8125 174.1875 C61.1225 176.1675 63.4325 178.1475 65.8125 180.1875 C66.4725 179.5275 67.1325 178.8675 67.8125 178.1875 C67.64686568 174.95763073 67.25972757 173.60587418 64.875 171.375 C62.9202807 170.02117852 62.9202807 170.02117852 60.8125 170.1875 Z M83 171.875 C81.51122511 174.14923323 81.51122511 174.14923323 82.4375 176.6875 C83.73246716 179.04198575 85.11684333 181.10646681 86.8125 183.1875 C88.7925 181.2075 90.7725 179.2275 92.8125 177.1875 C91.52950242 174.32542848 90.281864 172.1629912 87.8125 170.1875 C84.76570505 169.84679074 84.76570505 169.84679074 83 171.875 Z M99.6875 172.1875 C99.06875 172.8475 98.45 173.5075 97.8125 174.1875 C99.0873209 177.03133123 100.26387078 179.32504018 102.8125 181.1875 C104.93292756 181.3451585 104.93292756 181.3451585 106.8125 180.1875 C108.10910434 177.69715614 108.10910434 177.69715614 108.8125 175.1875 C107.18910195 173.47865995 105.51930947 171.81303283 103.8125 170.1875 C101.56887427 169.9590451 101.56887427 169.9590451 99.6875 172.1875 Z M194.8125 171.1875 C192.3375 174.6525 192.3375 174.6525 189.8125 178.1875 C192.4525 180.1675 195.0925 182.1475 197.8125 184.1875 C198.8025 183.1975 199.7925 182.2075 200.8125 181.1875 C200.38992724 179.7039999 199.94893678 178.22573576 199.5 176.75 C199.13455078 175.51443359 199.13455078 175.51443359 198.76171875 174.25390625 C198.29185547 173.23103516 198.29185547 173.23103516 197.8125 172.1875 C196.8225 171.8575 195.8325 171.5275 194.8125 171.1875 Z M11.8125 172.1875 C10.1625 174.1675 8.5125 176.1475 6.8125 178.1875 C8.4625 179.8375 10.1125 181.4875 11.8125 183.1875 C14.43437494 182.13875002 15.60621361 181.53818687 17.0625 179.0625 C17.43375 178.134375 17.43375 178.134375 17.8125 177.1875 C15.8325 175.5375 13.8525 173.8875 11.8125 172.1875 Z M146.8125 172.1875 C147.4725 173.5075 148.1325 174.8275 148.8125 176.1875 C149.4725 175.8575 150.1325 175.5275 150.8125 175.1875 C149.4925 174.1975 148.1725 173.2075 146.8125 172.1875 Z M177.8125 172.1875 C176.0981382 174.14677063 174.42844832 176.14630212 172.8125 178.1875 C175.7825 181.6525 175.7825 181.6525 178.8125 185.1875 C182.52412994 183.33168503 183.83025064 182.63035416 185.8125 179.1875 C184.57460371 175.47381113 182.96025123 174.41395819 179.8125 172.1875 C179.1525 172.1875 178.4925 172.1875 177.8125 172.1875 Z M-4.1875 173.1875 C-5.9018618 175.14677063 -7.57155168 177.14630212 -9.1875 179.1875 C-7.2075 180.8375 -5.2275 182.4875 -3.1875 184.1875 C-0.56562506 183.13875002 0.60621361 182.53818687 2.0625 180.0625 C2.43375 179.134375 2.43375 179.134375 2.8125 178.1875 C1.18910195 176.47865995 -0.48069053 174.81303283 -2.1875 173.1875 C-2.8475 173.1875 -3.5075 173.1875 -4.1875 173.1875 Z M-23.75 175.375 C-25.51431541 177.5995716 -25.81153791 179.40538056 -26.1875 182.1875 C-23.7125 184.1675 -23.7125 184.1675 -21.1875 186.1875 C-17.35803157 184.73494301 -16.06699705 182.75854439 -14.1875 179.1875 C-15.13625 178.3625 -16.085 177.5375 -17.0625 176.6875 C-17.59617187 176.2234375 -18.12984375 175.759375 -18.6796875 175.28125 C-20.80992501 173.73599999 -21.66093784 173.78731276 -23.75 175.375 Z M74.8125 174.1875 C75.1425 175.1775 75.4725 176.1675 75.8125 177.1875 C75.8125 176.1975 75.8125 175.2075 75.8125 174.1875 C75.4825 174.1875 75.1525 174.1875 74.8125 174.1875 Z M143.8125 175.1875 C142.45422029 176.83389965 141.11995749 178.50045807 139.8125 180.1875 C141.20582574 183.55470387 142.7914286 185.1734524 145.8125 187.1875 C149.29149158 185.79590337 150.29302501 184.55498512 151.8125 181.1875 C150.66925161 180.1845458 149.52282809 179.18520973 148.375 178.1875 C147.73691406 177.630625 147.09882813 177.07375 146.44140625 176.5 C145.03136821 175.08292935 145.03136821 175.08292935 143.8125 175.1875 Z M163.8125 175.1875 C162.4925 176.8375 161.1725 178.4875 159.8125 180.1875 C160.8025 181.5075 161.7925 182.8275 162.8125 184.1875 C165.97365776 182.81766497 166.8052092 182.1984362 168.8125 179.1875 C167.1625 177.8675 165.5125 176.5475 163.8125 175.1875 Z M53.6875 177.9375 C51.63677161 179.94895933 51.63677161 179.94895933 51.6875 182.125 C53.42057691 185.30230766 55.94916365 186.9943062 58.8125 189.1875 C60.4625 186.8775 62.1125 184.5675 63.8125 182.1875 C62.66925161 181.1845458 61.52282809 180.18520973 60.375 179.1875 C59.73691406 178.630625 59.09882813 178.07375 58.44140625 177.5 C56.00229686 175.53467445 56.22409508 175.84853935 53.6875 177.9375 Z M36.26953125 178.61328125 C35.72683594 179.23589844 35.18414062 179.85851562 34.625 180.5 C34.07457031 181.11488281 33.52414063 181.72976562 32.95703125 182.36328125 C32.57933594 182.96527344 32.20164062 183.56726563 31.8125 184.1875 C33.14582095 188.18746286 35.3082827 189.02532337 38.8125 191.1875 C39.98512904 190.06871617 41.15045138 188.94226949 42.3125 187.8125 C42.9621875 187.18601563 43.611875 186.55953125 44.28125 185.9140625 C46.03367431 184.32274093 46.03367431 184.32274093 45.8125 182.1875 C41.42527915 177.30837596 41.42527915 177.30837596 36.26953125 178.61328125 Z M94.8125 177.1875 C93.77954564 178.28033577 92.76142165 179.38720579 91.75 180.5 C91.18152344 181.11488281 90.61304688 181.72976562 90.02734375 182.36328125 C89.62644531 182.96527344 89.22554687 183.56726563 88.8125 184.1875 C90.04184015 187.87552044 91.75109378 188.91106973 94.8125 191.1875 C98.17970387 189.79417426 99.7984524 188.2085714 101.8125 185.1875 C100.32152342 181.3922869 98.05549151 179.57707269 94.8125 177.1875 Z M111.8125 178.1875 C110.4925 179.8375 109.1725 181.4875 107.8125 183.1875 C108.9100223 186.18074263 109.48932892 187.03360901 112.4375 188.4375 C113.613125 188.80875 113.613125 188.80875 114.8125 189.1875 C116.1325 187.5375 117.4525 185.8875 118.8125 184.1875 C115.63710444 180.76171051 115.63710444 180.76171051 111.8125 178.1875 Z M128.8125 178.1875 C126.3375 181.6525 126.3375 181.6525 123.8125 185.1875 C125.10215176 186.56312854 126.43939293 187.89516393 127.8125 189.1875 C128.4725 189.1875 129.1325 189.1875 129.8125 189.1875 C131.5268618 187.22822937 133.19655168 185.22869788 134.8125 183.1875 C134.09686734 181.1712767 134.09686734 181.1712767 132.8125 179.1875 C131.4925 178.8575 130.1725 178.5275 128.8125 178.1875 Z M19.8125 179.1875 C17.3375 182.6525 17.3375 182.6525 14.8125 186.1875 C16.7925 187.8375 18.7725 189.4875 20.8125 191.1875 C24.59746138 189.67351545 24.8197198 189.1730604 26.8125 185.1875 C24.5025 183.2075 22.1925 181.2275 19.8125 179.1875 Z M68.8125 179.1875 C68.4825 180.1775 68.1525 181.1675 67.8125 182.1875 C70.1225 184.1675 72.4325 186.1475 74.8125 188.1875 C74.8125 184.1541466 73.20370082 182.35232462 70.8125 179.1875 C70.1525 179.1875 69.4925 179.1875 68.8125 179.1875 Z M4.8125 180.1875 C2.3375 183.6525 2.3375 183.6525 -0.1875 187.1875 C2.7825 189.1675 2.7825 189.1675 5.8125 191.1875 C7.4625 189.2075 9.1125 187.2275 10.8125 185.1875 C8.8325 183.5375 6.8525 181.8875 4.8125 180.1875 Z M187.8125 180.1875 C185.8325 182.4975 183.8525 184.8075 181.8125 187.1875 C182.905625 188.198125 183.99875 189.20875 185.125 190.25 C185.73988281 190.81847656 186.35476563 191.38695312 186.98828125 191.97265625 C187.89126953 192.57400391 187.89126953 192.57400391 188.8125 193.1875 C192.81246286 191.85417905 193.65032337 189.6917173 195.8125 186.1875 C193.1725 184.2075 190.5325 182.2275 187.8125 180.1875 Z M169.8125 181.1875 C168.42311923 183.14897874 167.0864589 185.14916576 165.8125 187.1875 C168.4525 189.1675 171.0925 191.1475 173.8125 193.1875 C175.94052546 190.88183317 175.94052546 190.88183317 177.8125 188.1875 C176.57460371 184.47381113 174.96025123 183.41395819 171.8125 181.1875 C171.1525 181.1875 170.4925 181.1875 169.8125 181.1875 Z M-14.75 184.6875 C-15.9565625 185.925 -15.9565625 185.925 -17.1875 187.1875 C-15.79417426 190.55470387 -14.2085714 192.1734524 -11.1875 194.1875 C-9.2075 191.8775 -7.2275 189.5675 -5.1875 187.1875 C-9.89657421 181.9734504 -9.89657421 181.9734504 -14.75 184.6875 Z M200.8125 183.1875 C200.4825 184.5075 200.1525 185.8275 199.8125 187.1875 C202.2875 189.1675 202.2875 189.1675 204.8125 191.1875 C204.21388258 188.83578869 203.54325648 186.5015622 202.8125 184.1875 C202.1525 183.8575 201.4925 183.5275 200.8125 183.1875 Z M65.8125 184.1875 C63.16676499 186.41627725 63.16676499 186.41627725 60.8125 189.1875 C60.71921991 192.26574283 61.7928446 193.16605774 63.875 195.4375 C64.514375 196.015 65.15375 196.5925 65.8125 197.1875 C69.81246286 195.85417905 70.65032337 193.6917173 72.8125 190.1875 C70.5025 188.2075 68.1925 186.2275 65.8125 184.1875 Z M136.8125 184.1875 C135.1625 186.1675 133.5125 188.1475 131.8125 190.1875 C133.26505699 194.01696843 135.24145561 195.30800295 138.8125 197.1875 C140.4625 195.2075 142.1125 193.2275 143.8125 191.1875 C142.35994301 187.35803157 140.38354439 186.06699705 136.8125 184.1875 Z M-27.1875 185.1875 C-27.8475 188.4875 -28.5075 191.7875 -29.1875 195.1875 C-25.42062136 193.30406068 -24.39328354 192.49617531 -22.1875 189.1875 C-23.8375 187.8675 -25.4875 186.5475 -27.1875 185.1875 Z M47.8125 185.1875 C45.5025 187.8275 43.1925 190.4675 40.8125 193.1875 C44.5823467 197.53346055 44.5823467 197.53346055 49.8125 199.1875 C51.59681645 198.00800127 51.59681645 198.00800127 53.0625 196.25 C53.58328125 195.68410156 54.1040625 195.11820313 54.640625 194.53515625 C55.22070312 193.86806641 55.22070312 193.86806641 55.8125 193.1875 C54.31026416 188.98123966 51.52699966 187.44849979 47.8125 185.1875 Z M154.8125 185.1875 C153.43017557 186.81376404 152.09312485 188.4800002 150.8125 190.1875 C151.4725 191.5075 152.1325 192.8275 152.8125 194.1875 C154.72716367 194.06572312 154.72716367 194.06572312 156.8125 193.1875 C158.58398372 190.70816803 158.58398372 190.70816803 159.8125 188.1875 C158.43764468 186.64583358 158.43764468 186.64583358 156.8125 185.1875 C156.1525 185.1875 155.4925 185.1875 154.8125 185.1875 Z M104.8125 186.1875 C102.8325 188.4975 100.8525 190.8075 98.8125 193.1875 C101.12482422 195.74999975 101.12482422 195.74999975 103.8125 198.1875 C106.76758863 198.53120205 106.76758863 198.53120205 108.19921875 196.875 C108.62847656 196.318125 109.05773437 195.76125 109.5 195.1875 C110.6446875 193.7025 110.6446875 193.7025 111.8125 192.1875 C109.5025 190.2075 107.1925 188.2275 104.8125 186.1875 Z M121.8125 187.1875 C120.1625 189.1675 118.5125 191.1475 116.8125 193.1875 C119.7825 195.1675 119.7825 195.1675 122.8125 197.1875 C124.94052546 194.88183317 124.94052546 194.88183317 126.8125 192.1875 C126.14381686 189.07417752 126.14381686 189.07417752 123.75 188 C123.110625 187.731875 122.47125 187.46375 121.8125 187.1875 Z M12.8125 188.1875 C11.4925 189.5075 10.1725 190.8275 8.8125 192.1875 C10.20127354 195.54370271 11.72927965 197.26048728 14.8125 199.1875 C15.4725 199.1875 16.1325 199.1875 16.8125 199.1875 C18.4571674 196.72423288 18.4571674 196.72423288 19.8125 194.1875 C17.5025 192.2075 15.1925 190.2275 12.8125 188.1875 Z M27.8125 188.1875 C26.42311923 190.14897874 25.0864589 192.14916576 23.8125 194.1875 C26.1225 195.8375 28.4325 197.4875 30.8125 199.1875 C32.4625 197.2075 34.1125 195.2275 35.8125 193.1875 C34.86375 192.3625 33.915 191.5375 32.9375 190.6875 C32.40382813 190.2234375 31.87015625 189.759375 31.3203125 189.28125 C29.85313579 187.99177542 29.85313579 187.99177542 27.8125 188.1875 Z M85.8125 188.1875 C86.31962033 191.90638239 86.92858215 194.92204239 88.8125 198.1875 C89.8025 197.8575 90.7925 197.5275 91.8125 197.1875 C92.1425 196.1975 92.4725 195.2075 92.8125 194.1875 C90.5025 192.2075 88.1925 190.2275 85.8125 188.1875 Z M196.8125 188.1875 C194.3375 191.6525 194.3375 191.6525 191.8125 195.1875 C194.06208334 197.77083229 194.06208334 197.77083229 196.8125 200.1875 C198.1325 200.1875 199.4525 200.1875 200.8125 200.1875 C203.23097197 197.68265403 203.8125 196.72736194 203.8125 193.1875 C202.2770122 191.72659212 202.2770122 191.72659212 200.3125 190.5 C199.1575 189.736875 198.0025 188.97375 196.8125 188.1875 Z M179.8125 189.1875 C178.1625 191.1675 176.5125 193.1475 174.8125 195.1875 C177.1225 197.4975 179.4325 199.8075 181.8125 202.1875 C184.37499975 199.87517578 184.37499975 199.87517578 186.8125 197.1875 C186.8125 196.1975 186.8125 195.2075 186.8125 194.1875 C185.2770122 192.72659212 185.2770122 192.72659212 183.3125 191.5 C182.6628125 191.06300781 182.013125 190.62601563 181.34375 190.17578125 C180.8384375 189.84964844 180.333125 189.52351562 179.8125 189.1875 Z M-3.1875 190.1875 C-4.54462166 191.74605981 -4.54462166 191.74605981 -5.8125 193.6875 C-6.25851563 194.3371875 -6.70453125 194.986875 -7.1640625 195.65625 C-7.50179687 196.1615625 -7.83953125 196.666875 -8.1875 197.1875 C-5.7125 198.6725 -5.7125 198.6725 -3.1875 200.1875 C-1.2075 197.8775 0.7725 195.5675 2.8125 193.1875 C0.14002366 190.84462582 0.14002366 190.84462582 -3.1875 190.1875 Z M161.8125 191.1875 C160.43017557 192.81376404 159.09312485 194.4800002 157.8125 196.1875 C159.20582574 199.55470387 160.7914286 201.1734524 163.8125 203.1875 C165.7925 200.8775 167.7725 198.5675 169.8125 196.1875 C168.86375 195.3625 167.915 194.5375 166.9375 193.6875 C166.40382813 193.2234375 165.87015625 192.759375 165.3203125 192.28125 C163.85313579 190.99177542 163.85313579 190.99177542 161.8125 191.1875 Z M-22.57421875 193.5 C-23.00347656 194.056875 -23.43273437 194.61375 -23.875 195.1875 C-24.638125 196.1775 -25.40125 197.1675 -26.1875 198.1875 C-23.10222664 201.27700969 -23.10222664 201.27700969 -19.0625 202.125 C-16.99188407 201.08969203 -15.70054041 199.92749647 -14.1875 198.1875 C-15.33923355 195.71949953 -16.23533565 194.13966435 -18.1875 192.1875 C-21.14258863 191.84379795 -21.14258863 191.84379795 -22.57421875 193.5 Z M73.8125 192.1875 C72.45537834 193.74605981 72.45537834 193.74605981 71.1875 195.6875 C70.74148437 196.3371875 70.29546875 196.986875 69.8359375 197.65625 C69.49820313 198.1615625 69.16046875 198.666875 68.8125 199.1875 C70.1325 200.5075 71.4525 201.8275 72.8125 203.1875 C76.17841866 201.74496343 78.32297079 199.85485273 80.8125 197.1875 C79.18910195 195.47865995 77.51930947 193.81303283 75.8125 192.1875 C75.1525 192.1875 74.4925 192.1875 73.8125 192.1875 Z M128.8125 193.1875 C127.4925 194.8375 126.1725 196.4875 124.8125 198.1875 C126.26505699 202.01696843 128.24145561 203.30800295 131.8125 205.1875 C133.1325 203.5375 134.4525 201.8875 135.8125 200.1875 C134.35994301 196.35803157 132.38354439 195.06699705 128.8125 193.1875 Z M56.8125 194.1875 C53.8425 198.1475 53.8425 198.1475 50.8125 202.1875 C53.1225 203.8375 55.4325 205.4875 57.8125 207.1875 C60.1225 204.8775 62.4325 202.5675 64.8125 200.1875 C61.77603569 195.90649354 61.77603569 195.90649354 56.8125 194.1875 Z M147.8125 194.1875 C146.23409428 195.74455194 146.23409428 195.74455194 144.6875 197.6875 C144.14867187 198.3371875 143.60984375 198.986875 143.0546875 199.65625 C142.64476562 200.1615625 142.23484375 200.666875 141.8125 201.1875 C144.2875 202.6725 144.2875 202.6725 146.8125 204.1875 C148.4625 202.2075 150.1125 200.2275 151.8125 198.1875 C151.1525 196.8675 150.4925 195.5475 149.8125 194.1875 C149.1525 194.1875 148.4925 194.1875 147.8125 194.1875 Z M5.8125 196.1875 C3.8325 198.4975 1.8525 200.8075 -0.1875 203.1875 C2.06208334 205.77083229 2.06208334 205.77083229 4.8125 208.1875 C6.1325 208.1875 7.4525 208.1875 8.8125 208.1875 C11.08127535 205.76869071 11.08127535 205.76869071 12.8125 203.1875 C11.35994301 199.35803157 9.38354439 198.06699705 5.8125 196.1875 Z M20.8125 196.1875 C19.7864266 197.50087396 18.78522675 198.83414105 17.8125 200.1875 C18.96423355 202.65550047 19.86033565 204.23533565 21.8125 206.1875 C22.8025 206.1875 23.7925 206.1875 24.8125 206.1875 C26.52961243 203.74253957 26.52961243 203.74253957 27.8125 201.1875 C24.63912252 197.94098408 24.63912252 197.94098408 20.8125 196.1875 Z M38.8125 196.1875 C37.1625 198.1675 35.5125 200.1475 33.8125 202.1875 C36.1225 204.1675 38.4325 206.1475 40.8125 208.1875 C42.4625 206.2075 44.1125 204.2275 45.8125 202.1875 C43.5025 200.2075 41.1925 198.2275 38.8125 196.1875 Z M113.8125 196.1875 C112.1625 198.1675 110.5125 200.1475 108.8125 202.1875 C111.7825 204.1675 111.7825 204.1675 114.8125 206.1875 C116.1325 204.5375 117.4525 202.8875 118.8125 201.1875 C118.02132096 199.18766466 118.02132096 199.18766466 116.8125 197.1875 C115.8225 196.8575 114.8325 196.5275 113.8125 196.1875 Z M205.8125 196.1875 C204.92137963 197.49642435 204.07399076 198.83531004 203.25 200.1875 C202.79496094 200.93 202.33992188 201.6725 201.87109375 202.4375 C201.34708984 203.30375 201.34708984 203.30375 200.8125 204.1875 C203.11816683 206.31552546 203.11816683 206.31552546 205.8125 208.1875 C206.8025 207.8575 207.7925 207.5275 208.8125 207.1875 C208.1525 203.5575 207.4925 199.9275 206.8125 196.1875 C206.4825 196.1875 206.1525 196.1875 205.8125 196.1875 Z M92.125 198.6875 C91.691875 199.1825 91.25875 199.6775 90.8125 200.1875 C91.9983237 203.56253669 93.08823689 205.83472731 95.8125 208.1875 C99.17970387 206.79417426 100.7984524 205.2085714 102.8125 202.1875 C101.4203125 200.95 101.4203125 200.95 100 199.6875 C99.47792969 199.2234375 98.95585937 198.759375 98.41796875 198.28125 C95.89252662 196.56075415 94.38534346 196.67830581 92.125 198.6875 Z M188.8125 198.1875 C187.43017557 199.81376404 186.09312485 201.4800002 184.8125 203.1875 C186.10549694 206.07187779 187.47191363 208.05969421 189.8125 210.1875 C193.64196843 208.73494301 194.93300295 206.75854439 196.8125 203.1875 C195.86375 202.3625 194.915 201.5375 193.9375 200.6875 C193.40382813 200.2234375 192.87015625 199.759375 192.3203125 199.28125 C190.85313579 197.99177542 190.85313579 197.99177542 188.8125 198.1875 Z M-28.1875 199.1875 C-30.69048434 202.12578597 -31.65680939 204.36652761 -32.1875 208.1875 C-29.2175 210.1675 -29.2175 210.1675 -26.1875 212.1875 C-25.3625 211.23875 -24.5375 210.29 -23.6875 209.3125 C-23.2234375 208.77882812 -22.759375 208.24515625 -22.28125 207.6953125 C-20.99177542 206.22813579 -20.99177542 206.22813579 -21.1875 204.1875 C-22.74605981 202.83037834 -22.74605981 202.83037834 -24.6875 201.5625 C-25.3371875 201.11648437 -25.986875 200.67046875 -26.65625 200.2109375 C-27.1615625 199.87320313 -27.666875 199.53546875 -28.1875 199.1875 Z M154.8125 199.1875 C153.9875 200.115625 153.1625 201.04375 152.3125 202 C151.8484375 202.52207031 151.384375 203.04414063 150.90625 203.58203125 C149.53098759 205.276948 149.53098759 205.276948 149.8125 208.1875 C152.75486782 210.39918225 152.75486782 210.39918225 155.8125 212.1875 C156.81846297 211.2354279 157.81711563 210.27562654 158.8125 209.3125 C159.369375 208.77882812 159.92625 208.24515625 160.5 207.6953125 C162.03135522 206.26925012 162.03135522 206.26925012 161.8125 204.1875 C160.25394019 202.83037834 160.25394019 202.83037834 158.3125 201.5625 C157.6628125 201.11648437 157.013125 200.67046875 156.34375 200.2109375 C155.8384375 199.87320313 155.333125 199.53546875 154.8125 199.1875 Z M170.8125 199.1875 C169.0981382 201.14677063 167.42844832 203.14630212 165.8125 205.1875 C167.7925 207.1675 169.7725 209.1475 171.8125 211.1875 C174.69687779 209.89450306 176.68469421 208.52808637 178.8125 206.1875 C177.42372646 202.83129729 175.89572035 201.11451272 172.8125 199.1875 C172.1525 199.1875 171.4925 199.1875 170.8125 199.1875 Z M-11.1875 200.1875 C-12.56982443 201.81376404 -13.90687515 203.4800002 -15.1875 205.1875 C-14.1975 206.5075 -13.2075 207.8275 -12.1875 209.1875 C-9.56562506 208.13875002 -8.39378639 207.53818687 -6.9375 205.0625 C-6.56625 204.134375 -6.56625 204.134375 -6.1875 203.1875 C-7.56235532 201.64583358 -7.56235532 201.64583358 -9.1875 200.1875 C-9.8475 200.1875 -10.5075 200.1875 -11.1875 200.1875 Z M65.8125 202.1875 C64.23409428 203.74455194 64.23409428 203.74455194 62.6875 205.6875 C62.14867187 206.3371875 61.60984375 206.986875 61.0546875 207.65625 C60.64476562 208.1615625 60.23484375 208.666875 59.8125 209.1875 C61.1325 210.5075 62.4525 211.8275 63.8125 213.1875 C68.01876034 211.68526416 69.55150021 208.90199966 71.8125 205.1875 C69.14002366 202.84462582 69.14002366 202.84462582 65.8125 202.1875 Z M79.8125 202.1875 C78.78236723 203.83571244 77.78135372 205.50253702 76.8125 207.1875 C78.1325 208.1775 79.4525 209.1675 80.8125 210.1875 C80.8125 207.5475 80.8125 204.9075 80.8125 202.1875 C80.4825 202.1875 80.1525 202.1875 79.8125 202.1875 Z M121.8125 202.1875 C120.1625 203.8375 118.5125 205.4875 116.8125 207.1875 C118.14582095 211.18746286 120.3082827 212.02532337 123.8125 214.1875 C125.95817913 212.45894074 125.95817913 212.45894074 127.8125 210.1875 C128.04325102 208.1047483 128.04325102 208.1047483 126.8125 206.1875 C124.33588502 203.93899517 124.33588502 203.93899517 121.8125 202.1875 Z M136.625 205.1875 C136.026875 205.8475 135.42875 206.5075 134.8125 207.1875 C135.4725 208.5075 136.1325 209.8275 136.8125 211.1875 C138.1325 211.1875 139.4525 211.1875 140.8125 211.1875 C142.58659808 209.26727297 142.58659808 209.26727297 143.8125 207.1875 C143.1525 205.8675 142.4925 204.5475 141.8125 203.1875 C138.68751834 202.8501154 138.68751834 202.8501154 136.625 205.1875 Z M14.8125 204.1875 C13.0981382 206.14677063 11.42844832 208.14630212 9.8125 210.1875 C11.35123177 213.90610179 12.28761388 214.54383541 15.8125 217.1875 C17.7925 214.5475 19.7725 211.9075 21.8125 209.1875 C20.18910195 207.47865995 18.51930947 205.81303283 16.8125 204.1875 C16.1525 204.1875 15.4925 204.1875 14.8125 204.1875 Z M29.8125 205.1875 C28.3275 207.6625 28.3275 207.6625 26.8125 210.1875 C29.1225 212.1675 31.4325 214.1475 33.8125 216.1875 C35.1325 214.5375 36.4525 212.8875 37.8125 211.1875 C34.33513974 207.40715377 34.33513974 207.40715377 29.8125 205.1875 Z M47.8125 205.1875 C46.42311923 207.14897874 45.0864589 209.14916576 43.8125 211.1875 C46.2875 213.1675 46.2875 213.1675 48.8125 215.1875 C51.43437494 214.13875002 52.60621361 213.53818687 54.0625 211.0625 C54.43375 210.134375 54.43375 210.134375 54.8125 209.1875 C51.71922105 206.21074541 51.71922105 206.21074541 47.8125 205.1875 Z M104.8125 205.1875 C103.12161778 207.16706942 101.45419528 209.16695196 99.8125 211.1875 C102.2875 213.1675 102.2875 213.1675 104.8125 215.1875 C107.43437494 214.13875002 108.60621361 213.53818687 110.0625 211.0625 C110.43375 210.134375 110.43375 210.134375 110.8125 209.1875 C108.10246707 206.51418287 108.10246707 206.51418287 104.8125 205.1875 Z M-3.1875 206.1875 C-5.31552546 208.49316683 -5.31552546 208.49316683 -7.1875 211.1875 C-6.1396672 214.33099841 -5.60836332 214.92001185 -3.125 216.875 C-1.6709375 218.0196875 -1.6709375 218.0196875 -0.1875 219.1875 C1.4625 216.8775 3.1125 214.5675 4.8125 212.1875 C2.1725 210.2075 -0.4675 208.2275 -3.1875 206.1875 Z M198.8125 206.1875 C196.3375 209.6525 196.3375 209.6525 193.8125 213.1875 C195.1325 214.5075 196.4525 215.8275 197.8125 217.1875 C200.69687779 215.89450306 202.68469421 214.52808637 204.8125 212.1875 C203.56703595 208.45110784 202.17845047 207.99993487 198.8125 206.1875 Z M163.8125 207.1875 C162.1625 209.1675 160.5125 211.1475 158.8125 213.1875 C160.10549694 216.07187779 161.47191363 218.05969421 163.8125 220.1875 C167.6077131 218.69652342 169.42292731 216.43049151 171.8125 213.1875 C169.1725 211.2075 166.5325 209.2275 163.8125 207.1875 Z M181.8125 207.1875 C180.1625 209.1675 178.5125 211.1475 176.8125 213.1875 C177.96423355 215.65550047 178.86033565 217.23533565 180.8125 219.1875 C183.7091677 218.99438882 184.84460237 218.15985629 187.0625 216.25 C189.02815915 214.38414456 189.02815915 214.38414456 188.8125 212.1875 C187.25394019 210.83037834 187.25394019 210.83037834 185.3125 209.5625 C184.6628125 209.11648437 184.013125 208.67046875 183.34375 208.2109375 C182.8384375 207.87320313 182.333125 207.53546875 181.8125 207.1875 Z M-18.1875 208.1875 C-19.76590572 209.74455194 -19.76590572 209.74455194 -21.3125 211.6875 C-21.85132813 212.3371875 -22.39015625 212.986875 -22.9453125 213.65625 C-23.35523438 214.1615625 -23.76515625 214.666875 -24.1875 215.1875 C-22.2075 216.8375 -20.2275 218.4875 -18.1875 220.1875 C-14.54573509 216.2040756 -14.54573509 216.2040756 -13.1875 211.1875 C-14.41704016 209.37450508 -14.41704016 209.37450508 -16.1875 208.1875 C-16.8475 208.1875 -17.5075 208.1875 -18.1875 208.1875 Z M73.8125 209.1875 C71.05229568 211.94973489 71.05229568 211.94973489 68.8125 215.1875 C70.05796405 218.92389216 71.44654953 219.37506513 74.8125 221.1875 C78.38354439 219.30800295 80.35994301 218.01696843 81.8125 214.1875 C80.86375 213.3625 79.915 212.5375 78.9375 211.6875 C78.40382812 211.2234375 77.87015625 210.759375 77.3203125 210.28125 C75.85313579 208.99177542 75.85313579 208.99177542 73.8125 209.1875 Z M146.8125 209.1875 C145.0981382 211.14677063 143.42844832 213.14630212 141.8125 215.1875 C144.12482422 217.74999975 144.12482422 217.74999975 146.8125 220.1875 C147.8025 220.1875 148.7925 220.1875 149.8125 220.1875 C152.02418225 217.24513218 152.02418225 217.24513218 153.8125 214.1875 C152.18910195 212.47865995 150.51930947 210.81303283 148.8125 209.1875 C148.1525 209.1875 147.4925 209.1875 146.8125 209.1875 Z M93.8125 210.1875 C94.8125 212.1875 94.8125 212.1875 94.8125 212.1875 Z M130.8125 211.1875 C129.12161778 213.16706942 127.45419528 215.16695196 125.8125 217.1875 C127.1325 218.8375 128.4525 220.4875 129.8125 222.1875 C133.81246286 220.85417905 134.65032337 218.6917173 136.8125 215.1875 C134.10246707 212.51418287 134.10246707 212.51418287 130.8125 211.1875 Z M-33.1875 212.1875 C-33.8475 214.4975 -34.5075 216.8075 -35.1875 219.1875 C-33.8675 218.8575 -32.5475 218.5275 -31.1875 218.1875 C-30.8575 216.8675 -30.5275 215.5475 -30.1875 214.1875 C-31.1775 213.5275 -32.1675 212.8675 -33.1875 212.1875 Z M23.8125 212.1875 C22.23409428 213.74455194 22.23409428 213.74455194 20.6875 215.6875 C20.14867188 216.3371875 19.60984375 216.986875 19.0546875 217.65625 C18.64476563 218.1615625 18.23484375 218.666875 17.8125 219.1875 C18.8025 220.6725 18.8025 220.6725 19.8125 222.1875 C21.94738276 222.62682865 21.94738276 222.62682865 24.3125 222.5 C25.1065625 222.49613281 25.900625 222.49226562 26.71875 222.48828125 C29.02983036 222.36975165 29.02983036 222.36975165 30.8125 220.1875 C30.61938882 217.2908323 29.78485629 216.15539763 27.875 213.9375 C26.00914456 211.97184085 26.00914456 211.97184085 23.8125 212.1875 Z M56.8125 212.1875 C55.0981382 214.14677063 53.42844832 216.14630212 51.8125 218.1875 C54.92443357 221.29291978 54.92443357 221.29291978 59 222.125 C61.15759852 221.19440197 61.15759852 221.19440197 62.8125 218.1875 C62.8125 217.1975 62.8125 216.2075 62.8125 215.1875 C60.19398757 212.76036241 60.19398757 212.76036241 56.8125 212.1875 Z M111.42578125 213.5 C110.99652344 214.056875 110.56726563 214.61375 110.125 215.1875 C109.361875 216.1775 108.59875 217.1675 107.8125 218.1875 C109.89398271 220.65444247 111.09467411 222.04393482 114.3125 222.6875 C117.53032589 222.04393482 118.73101729 220.65444247 120.8125 218.1875 C119.67150474 214.76451423 118.81164379 214.03991234 115.8125 212.1875 C112.85741137 211.84379795 112.85741137 211.84379795 111.42578125 213.5 Z M40.8125 213.1875 C39.1625 215.1675 37.5125 217.1475 35.8125 219.1875 C36.93359566 220.81243901 36.93359566 220.81243901 38.8125 222.1875 C41.93799017 222.43798636 41.93799017 222.43798636 44.8125 222.1875 C45.4725 220.5375 46.1325 218.8875 46.8125 217.1875 C44.8325 215.8675 42.8525 214.5475 40.8125 213.1875 Z M94.6875 215.1875 C94.06875 215.8475 93.45 216.5075 92.8125 217.1875 C96.32437196 219.59564077 98.53906908 220.55379408 102.8125 220.1875 C103.13789569 217.08694369 103.13789569 217.08694369 100.9375 215 C97.99284815 212.48838518 97.51340099 212.52782848 94.6875 215.1875 Z M-10.1875 214.1875 C-11.54926581 216.16825027 -12.88343116 218.16829663 -14.1875 220.1875 C-10.8875 220.1875 -7.5875 220.1875 -4.1875 220.1875 C-5.82919528 218.16695196 -7.49661778 216.16706942 -9.1875 214.1875 C-9.5175 214.1875 -9.8475 214.1875 -10.1875 214.1875 Z M6.8125 214.1875 C4.3375 217.6525 4.3375 217.6525 1.8125 221.1875 C5.4425 221.1875 9.0725 221.1875 12.8125 221.1875 C12.8125 220.1975 12.8125 219.2075 12.8125 218.1875 C9.87013218 215.97581775 9.87013218 215.97581775 6.8125 214.1875 Z M155.8125 216.1875 C154.9875 217.13625 154.1625 218.085 153.3125 219.0625 C152.8484375 219.59617188 152.384375 220.12984375 151.90625 220.6796875 C150.61677542 222.14686421 150.61677542 222.14686421 150.8125 224.1875 C154.7725 224.1875 158.7325 224.1875 162.8125 224.1875 C163.1425 223.5275 163.4725 222.8675 163.8125 222.1875 C161.1725 220.2075 158.5325 218.2275 155.8125 216.1875 Z M173.8125 216.1875 C171.8325 218.4975 169.8525 220.8075 167.8125 223.1875 C171.2908633 224.05709082 172.71866881 224.25157468 176.0625 223.75 C177.3 223.564375 178.5375 223.37875 179.8125 223.1875 C179.8125 222.1975 179.8125 221.2075 179.8125 220.1875 C176.87013218 217.97581775 176.87013218 217.97581775 173.8125 216.1875 Z M184.8125 221.1875 C188.02967892 222.25989297 188.86533612 222.12359485 192 221.25 C193.258125 220.899375 194.51625 220.54875 195.8125 220.1875 C195.16253098 217.14604206 195.16253098 217.14604206 193.125 216.1875 C189.31800315 216.1875 187.53174333 218.65365962 184.8125 221.1875 Z M65.8125 218.1875 C65.1525 219.5075 64.4925 220.8275 63.8125 222.1875 C65.4625 221.8575 67.1125 221.5275 68.8125 221.1875 C67.8225 220.1975 66.8325 219.2075 65.8125 218.1875 Z M138.8125 218.1875 C137.43687146 219.47715176 136.10483607 220.81439293 134.8125 222.1875 C134.8125 222.8475 134.8125 223.5075 134.8125 224.1875 C138.4425 224.1875 142.0725 224.1875 145.8125 224.1875 C143.01829508 220.27146696 143.01829508 220.27146696 138.8125 218.1875 Z M122.8125 219.1875 C122.1525 220.5075 121.4925 221.8275 120.8125 223.1875 C123.1225 223.1875 125.4325 223.1875 127.8125 223.1875 C126.50049596 221.83317325 125.16618596 220.50016518 123.8125 219.1875 C123.4825 219.1875 123.1525 219.1875 122.8125 219.1875 Z M48.8125 220.1875 C48.4825 220.8475 48.1525 221.5075 47.8125 222.1875 C49.1325 221.8575 50.4525 221.5275 51.8125 221.1875 C50.8225 220.8575 49.8325 220.5275 48.8125 220.1875 Z M88.8125 221.1875 C87.8225 222.6725 87.8225 222.6725 86.8125 224.1875 C89.7825 224.1875 92.7525 224.1875 95.8125 224.1875 C93.19308783 222.44122522 91.77425123 221.80027612 88.8125 221.1875 Z M-62.08959961 230.9206543 C-64.48979423 234.6456967 -64.48979423 234.6456967 -64.84375 238.859375 C-64.8334375 239.68824219 -64.823125 240.51710938 -64.8125 241.37109375 C-64.77125 242.21800781 -64.73 243.06492187 -64.6875 243.9375 C-64.6771875 244.79988281 -64.666875 245.66226563 -64.65625 246.55078125 C-64.76533798 251.38335257 -64.76533798 251.38335257 -62.1875 255.1875 C-55.48466974 256.22426871 -51.66701656 255.1014404 -46.1875 251.1875 C-39.11800432 248.59397896 -32.46720634 247.80573171 -25 247.9375 C-24.05824921 247.95221848 -23.11649841 247.96693695 -22.14620972 247.98210144 C-16.78369109 248.07621772 -11.42655215 248.20423893 -6.06762695 248.42407227 C20.70773705 249.49378239 47.49930809 249.37512016 74.29148918 249.37261045 C79.03370647 249.37291371 83.77586608 249.38101973 88.51806641 249.39331055 C119.42313844 249.47194376 150.25950512 249.24494059 181.13394165 247.71366882 C182.20349216 247.66458815 183.27304268 247.61550747 184.37500381 247.5649395 C186.34740365 247.47386095 188.31940379 247.37336429 190.29070663 247.26101875 C197.99304976 246.9139814 204.29236511 247.74248146 210.75 252.3125 C214.92990426 254.9378411 217.99562632 255.86000341 222.90234375 255.88671875 C225.01230853 255.29318908 225.01230853 255.29318908 226.5390625 253.14453125 C228.13012983 249.44993625 228.29011364 246.14051717 228.25 242.1875 C228.26998047 241.48882812 228.28996094 240.79015625 228.31054688 240.0703125 C228.30708239 236.39795862 227.92112681 234.35523586 225.91015625 231.25 C221.2462973 226.66430629 215.2561302 227.99676425 209.0625 228 C207.15682251 227.9990332 207.15682251 227.9990332 205.21264648 227.99804688 C197.70642964 228.03952029 190.33454559 228.37146857 182.875 229.1875 C174.19528555 230.12633124 165.60478328 230.37947251 156.875 230.375 C155.70267822 230.37564453 154.53035645 230.37628906 153.32250977 230.37695312 C147.45528616 230.34067717 141.64126062 230.13061346 135.79052734 229.68530273 C128.2296539 229.16766047 120.70827074 229.04241787 113.12890625 229.0546875 C111.77619917 229.0540103 110.4234922 229.05303686 109.07078552 229.05178833 C106.26161519 229.05033037 103.45247707 229.0524033 100.64331055 229.05712891 C97.09231044 229.06282026 93.54138542 229.05945336 89.99038792 229.05367851 C70.90120179 228.98890531 70.90120179 228.98890531 51.84375 229.9609375 C43.83573608 230.55947462 35.82781635 230.25550773 27.81700134 229.86842346 C12.83716268 229.15048819 -2.15047537 228.70854581 -17.14387798 228.40345383 C-21.12695609 228.32192968 -25.1089704 228.22808726 -29.09106445 228.10717773 C-33.01412659 227.98837303 -36.93682016 227.89940606 -40.86108208 227.83148003 C-42.33844891 227.8008809 -43.81564058 227.75983389 -45.29240608 227.70775032 C-54.33162193 227.06174588 -54.33162193 227.06174588 -62.08959961 230.9206543 Z M-38.1875 254.1875 C-38.1875 254.5175 -38.1875 254.8475 -38.1875 255.1875 C42.9925 255.1875 124.1725 255.1875 207.8125 255.1875 C204.0112008 251.3862008 198.35121001 251.08193104 193.17333984 250.95703125 C191.41498255 250.95956555 189.65661493 250.9747231 187.8984375 251 C186.4180751 251.01075562 186.4180751 251.01075562 184.9078064 251.02172852 C172.70522445 251.14764973 160.5079432 251.57963024 148.31161499 251.9709816 C96.32546711 253.6293468 44.21700423 254.55181508 -7.73828125 251.625 C-23.2065634 250.71626121 -23.2065634 250.71626121 -38.1875 254.1875 Z M-53.796875 268.9609375 C-58.26115037 278.61502169 -58.26115037 278.61502169 -58.67700195 288.97167969 C-57.79352722 294.91308562 -58.30412816 300.92671508 -58.51953125 306.90625 C-58.60019857 309.64050187 -58.67343615 312.37495193 -58.74804688 315.109375 C-58.86748802 319.39071485 -58.99629297 323.6711993 -59.15795898 327.95117188 C-60.36437971 349.86097685 -60.36437971 349.86097685 -53.1875 370.1875 C-52.66768555 371.17814453 -52.14787109 372.16878906 -51.61230469 373.18945312 C-47.83761682 380.2842428 -42.96480285 385.69116565 -35.1875 388.1875 C-32.07946786 388.52106421 -28.97795494 388.55717127 -25.85400391 388.59814453 C-24.91642148 388.61793523 -23.97883905 388.63772593 -23.01284504 388.65811634 C-19.89668679 388.7214247 -16.78047126 388.77099975 -13.6640625 388.8203125 C-11.46617797 388.86171394 -9.26830712 388.90384719 -7.07044983 388.94667053 C-1.19799728 389.05824462 4.67460204 389.15711979 10.54733658 389.25255966 C14.1845502 389.31245143 17.82169272 389.37559926 21.45883179 389.43984985 C70.60024428 390.30609902 119.67875242 390.70389626 168.8125 389.1875 C170.07980957 389.15011719 171.34711914 389.11273438 172.65283203 389.07421875 C175.74834885 388.97857698 178.84283047 388.86966528 181.9375 388.75 C182.73551025 388.72301025 183.53352051 388.69602051 184.35571289 388.66821289 C196.52261251 388.10889229 207.23955904 385.24229245 215.8125 376.1875 C221.9944102 368.52761586 224.05234864 361.28595143 224.0871582 351.49316406 C224.09226913 350.77 224.09738007 350.04683594 224.10264587 349.30175781 C224.11642788 346.9354602 224.11559328 344.56945773 224.11328125 342.203125 C224.11717544 340.5393666 224.12151159 338.87560919 224.12626648 337.21185303 C224.13370501 333.73202283 224.1334554 330.25229413 224.12817383 326.77246094 C224.12239323 322.34350674 224.13928751 317.91497266 224.1625185 313.4860878 C224.17735359 310.05081815 224.17811417 306.61564728 224.17500877 303.18035126 C224.17551745 301.54910198 224.18066855 299.91784649 224.19082069 298.28662872 C224.25459169 286.60482599 223.76930042 275.34517308 217.6875 265 C217.16929687 264.09894531 216.65109375 263.19789063 216.1171875 262.26953125 C214.97690773 260.27733776 214.97690773 260.27733776 213.8125 259.1875 C212.42655345 259.08478001 211.03543049 259.05093528 209.64569569 259.04489899 C208.74172198 259.03859105 207.83774828 259.03228311 206.90638143 259.02578402 C205.90174043 259.02392202 204.89709943 259.02206002 203.86201477 259.0201416 C202.80367013 259.01434822 201.74532548 259.00855483 200.65490979 259.00258589 C197.07894503 258.98442815 193.50299618 258.97362612 189.92700195 258.96289062 C187.37504428 258.95172261 184.82308809 258.94020953 182.27113342 258.92837524 C173.86436988 258.89173373 165.45759237 258.86652644 157.05078125 258.84375 C155.97903025 258.84078765 155.97903025 258.84078765 154.88562772 258.83776546 C140.70439055 258.79860639 126.52314471 258.76488819 112.34187031 258.74268341 C109.22213541 258.73771389 106.10240065 258.7326696 102.98266602 258.72753906 C102.20724554 258.72626839 101.43182506 258.72499772 100.632907 258.72368854 C88.07243194 258.70232986 75.51221858 258.65333876 62.95187519 258.59329492 C50.06289579 258.53218717 37.17405141 258.4974973 24.28492898 258.4882102 C17.04550872 258.48229598 9.80653145 258.46451214 2.56725502 258.41682434 C-4.24298811 258.3720049 -11.05235469 258.36263369 -17.86277199 258.37745285 C-20.36458588 258.37712317 -22.86643093 258.36476772 -25.36811829 258.33960342 C-28.78035438 258.3070875 -32.18983486 258.31758857 -35.60209656 258.33898926 C-36.59558395 258.31928149 -37.58907133 258.29957372 -38.6126644 258.27926874 C-47.04222226 258.41305548 -49.75599698 261.99728848 -53.796875 268.9609375 Z M-55.1875 262.1875 C-55.1875 265.1875 -55.1875 265.1875 -55.1875 265.1875 Z M-57.1875 265.1875 C-56.1875 267.1875 -56.1875 267.1875 -56.1875 267.1875 Z M-57.1875 371.1875 C-56.88473124 377.24287521 -53.90995962 380.70233458 -50.1875 385.1875 C-49.5275 384.8575 -48.8675 384.5275 -48.1875 384.1875 C-49.12351246 382.76985006 -50.0613792 381.35342432 -51 379.9375 C-51.52207031 379.14859375 -52.04414062 378.3596875 -52.58203125 377.546875 C-54.05884122 375.37657519 -55.59439873 373.27336232 -57.1875 371.1875 Z " fill="#D2D2D2" transform="translate(96.1875,27.8125)"/>
<path d="M0 0 C0.8672168 -0.0100708 1.73443359 -0.0201416 2.62792969 -0.03051758 C8.6344681 0.05051207 13.53429077 1.32227241 19.125 3.4375 C20.053125 3.685 20.98125 3.9325 21.9375 4.1875 C25.31717349 6.118742 26.76825122 8.91801308 28.125 12.4375 C30.02255711 19.86272347 29.20027586 27.36787826 25.72265625 34.1875 C24.25507039 36.65620188 22.73192789 39.05767473 21.125 41.4375 C20.465 42.4275 19.805 43.4175 19.125 44.4375 C20.176875 44.685 21.22875 44.9325 22.3125 45.1875 C27.03854406 46.55280162 29.99645126 48.86559282 32.875 52.875 C36.16504014 59.61958228 36.1415566 67.88973832 33.9375 75 C29.2787827 87.20756478 23.51058427 92.68999377 11.625 98.0625 C-0.64480924 103.35257219 -13.59147782 106.14154662 -26.875 107.4375 C-28.18210938 107.5921875 -29.48921875 107.746875 -30.8359375 107.90625 C-40.4920723 108.58919863 -40.4920723 108.58919863 -44.3046875 105.4140625 C-47.38660375 101.1556471 -49.65793306 96.57622709 -50.875 91.4375 C-49.11426286 89.20477038 -48.17911605 88.49470676 -45.34155273 87.9609375 C-44.34067627 87.91195312 -43.3397998 87.86296875 -42.30859375 87.8125 C-41.19178223 87.74756348 -40.0749707 87.68262695 -38.92431641 87.61572266 C-37.73241699 87.55690918 -36.54051758 87.4980957 -35.3125 87.4375 C-14.23906658 86.12964764 9.82755279 84.44830664 26.125 69.4375 C24.87718557 65.55541065 22.49911753 64.16641746 18.98046875 62.31640625 C10.38417268 58.24447653 1.55665416 58.30788086 -7.75 58.4375 C-9.62233892 58.46293939 -11.49474416 58.48399621 -13.3671875 58.5 C-14.18558105 58.51160156 -15.00397461 58.52320313 -15.84716797 58.53515625 C-17.875 58.4375 -17.875 58.4375 -19.875 57.4375 C-20.25591797 58.74074219 -20.25591797 58.74074219 -20.64453125 60.0703125 C-20.98871094 61.22273438 -21.33289063 62.37515625 -21.6875 63.5625 C-22.02394531 64.69945312 -22.36039063 65.83640625 -22.70703125 67.0078125 C-23.84071636 70.33682763 -25.229202 73.33453414 -26.875 76.4375 C-28.195 76.4375 -29.515 76.4375 -30.875 76.4375 C-35.08068732 66.61821287 -34.9430639 60.97494924 -31.9375 50.9375 C-29.6260483 43.18783283 -28.66755663 35.46735005 -27.875 27.4375 C-28.6175 27.9325 -29.36 28.4275 -30.125 28.9375 C-32.875 30.4375 -32.875 30.4375 -36.875 30.4375 C-37.86888004 27.09517762 -38.07232765 23.98076464 -38.125 20.5 C-38.15078125 19.48035156 -38.1765625 18.46070313 -38.203125 17.41015625 C-37.74672484 13.27538811 -36.34621876 10.66020208 -33.140625 7.99609375 C-22.61788932 2.14333185 -11.89560879 0.08916462 0 0 Z M-15.875 23.4375 C-16.10214004 25.06816766 -16.26955086 26.70726003 -16.41015625 28.34765625 C-16.49716797 29.33701172 -16.58417969 30.32636719 -16.67382812 31.34570312 C-16.76083984 32.38662109 -16.84785156 33.42753906 -16.9375 34.5 C-17.02837891 35.54478516 -17.11925781 36.58957031 -17.21289062 37.66601562 C-17.43760908 40.2561915 -17.6581231 42.84665767 -17.875 45.4375 C-3.57255776 42.72885694 8.54582313 40.01667687 19.125 29.4375 C19.19046898 26.92702515 19.19046898 26.92702515 18.125 24.4375 C11.55264064 19.17961251 -9.3269542 16.8894542 -15.875 23.4375 Z " fill="#FFFFFF" transform="translate(180.875,297.5625)"/>
</svg>
