<?xml version="1.0" encoding="UTF-8"?>
<svg version="1.1" xmlns="http://www.w3.org/2000/svg" width="225" height="225">
<path d="M0 0 C8.99262588 7.36259797 12.19314972 16.7864921 13.5625 28.0625 C14.59446228 40.44604734 10.86639458 51.57344896 4.98828125 62.234375 C3.33741441 64.98110481 3.33741441 64.98110481 3.5625 68.0625 C5.12996782 69.50863805 5.12996782 69.50863805 7.1875 70.8125 C16.39245794 77.41534969 21.51733667 85.91527586 23.5625 97.0625 C25.51980187 116.36934169 21.55898349 133.33803841 9.4296875 148.77734375 C-13.42115284 175.25087829 -53.34315794 182.50504109 -86.4375 186.0625 C-87.64535156 186.19527344 -88.85320312 186.32804688 -90.09765625 186.46484375 C-111.27298088 188.50146918 -111.27298088 188.50146918 -118.4375 185.0625 C-126.92758139 177.95405922 -136.63970911 162.64151347 -137.8125 151.5 C-137.37326381 147.47366826 -136.84491962 145.34534494 -134.4375 142.0625 C-127.70738129 137.73224639 -120.48240147 137.28356668 -112.6875 136.875 C-110.48422343 136.73809489 -108.28109018 136.59885873 -106.078125 136.45703125 C-104.63228027 136.37739136 -104.63228027 136.37739136 -103.15722656 136.29614258 C-100.51993152 136.06958142 -98.01987068 135.63410934 -95.4375 135.0625 C-96.159375 134.7325 -96.88125 134.4025 -97.625 134.0625 C-103.91516964 129.58949048 -106.46090327 122.12096317 -108.75 115 C-109.01361328 114.23623047 -109.27722656 113.47246094 -109.54882812 112.68554688 C-112.16580189 104.7394629 -111.69047735 98.89487857 -108.75 91.0625 C-104.91553187 80.3034741 -102.66576257 69.24568622 -100.4375 58.0625 C-101.82388672 58.12244141 -101.82388672 58.12244141 -103.23828125 58.18359375 C-106.80713418 58.04850896 -108.4905064 57.16445748 -111.1171875 54.7578125 C-113.58212941 51.59276874 -114.48223577 47.90417413 -115.4375 44.0625 C-115.62183594 43.45664063 -115.80617188 42.85078125 -115.99609375 42.2265625 C-117.96970776 32.55061417 -117.17376457 20.81755804 -112.359375 12.11328125 C-101.46493883 -2.48920096 -80.28949002 -6.2728691 -63.4375 -8.9375 C-62.37402344 -9.123125 -61.31054688 -9.30875 -60.21484375 -9.5 C-41.02924216 -11.72211725 -16.36842757 -11.7131867 0 0 Z M-61.4375 43.0625 C-62.0975 49.6625 -62.7575 56.2625 -63.4375 63.0625 C-41.64691959 57.38293112 -41.64691959 57.38293112 -22.4375 46.0625 C-22.4375 45.4025 -22.4375 44.7425 -22.4375 44.0625 C-34.854766 39.46756457 -48.72128081 39.78089505 -61.4375 43.0625 Z M-71.4375 105.0625 C-71.87320313 106.25746094 -72.30890625 107.45242187 -72.7578125 108.68359375 C-80.49822218 129.50330547 -80.49822218 129.50330547 -88.4375 135.0625 C-81.7101904 135.27950999 -75.38246093 134.46632687 -68.75 133.375 C-67.65437744 133.19493408 -66.55875488 133.01486816 -65.42993164 132.8293457 C-45.53088507 129.4598218 -25.87222143 125.52549708 -9.4375 113.0625 C-21.26273585 102.34588001 -40.32163154 102.53614988 -55.36523438 102.95166016 C-60.77170584 103.24083759 -66.10924373 104.13005515 -71.4375 105.0625 Z " fill="#FBFBFB" transform="translate(169.4375,23.9375)"/>
<path d="M0 0 C8.99262588 7.36259797 12.19314972 16.7864921 13.5625 28.0625 C14.59446228 40.44604734 10.86639458 51.57344896 4.98828125 62.234375 C3.33741441 64.98110481 3.33741441 64.98110481 3.5625 68.0625 C5.12996782 69.50863805 5.12996782 69.50863805 7.1875 70.8125 C16.39245794 77.41534969 21.51733667 85.91527586 23.5625 97.0625 C25.51980187 116.36934169 21.55898349 133.33803841 9.4296875 148.77734375 C-13.42115284 175.25087829 -53.34315794 182.50504109 -86.4375 186.0625 C-87.64535156 186.19527344 -88.85320312 186.32804688 -90.09765625 186.46484375 C-111.27298088 188.50146918 -111.27298088 188.50146918 -118.4375 185.0625 C-126.92758139 177.95405922 -136.63970911 162.64151347 -137.8125 151.5 C-137.37326381 147.47366826 -136.84491962 145.34534494 -134.4375 142.0625 C-127.70738129 137.73224639 -120.48240147 137.28356668 -112.6875 136.875 C-110.48422343 136.73809489 -108.28109018 136.59885873 -106.078125 136.45703125 C-104.63228027 136.37739136 -104.63228027 136.37739136 -103.15722656 136.29614258 C-100.51993152 136.06958142 -98.01987068 135.63410934 -95.4375 135.0625 C-96.159375 134.7325 -96.88125 134.4025 -97.625 134.0625 C-103.91516964 129.58949048 -106.46090327 122.12096317 -108.75 115 C-109.01361328 114.23623047 -109.27722656 113.47246094 -109.54882812 112.68554688 C-112.16580189 104.7394629 -111.69047735 98.89487857 -108.75 91.0625 C-104.91553187 80.3034741 -102.66576257 69.24568622 -100.4375 58.0625 C-101.82388672 58.12244141 -101.82388672 58.12244141 -103.23828125 58.18359375 C-106.80713418 58.04850896 -108.4905064 57.16445748 -111.1171875 54.7578125 C-113.58212941 51.59276874 -114.48223577 47.90417413 -115.4375 44.0625 C-115.62183594 43.45664063 -115.80617188 42.85078125 -115.99609375 42.2265625 C-117.96970776 32.55061417 -117.17376457 20.81755804 -112.359375 12.11328125 C-101.46493883 -2.48920096 -80.28949002 -6.2728691 -63.4375 -8.9375 C-62.37402344 -9.123125 -61.31054688 -9.30875 -60.21484375 -9.5 C-41.02924216 -11.72211725 -16.36842757 -11.7131867 0 0 Z M-103.4375 17.0625 C-107.83342059 23.65638088 -107.3260447 34.01711142 -105.98828125 41.61328125 C-105.52947988 43.44523283 -104.99288993 45.25748274 -104.4375 47.0625 C-102.69225551 47.84664014 -102.69225551 47.84664014 -100.4375 48.0625 C-97.88125988 46.91074922 -97.88125988 46.91074922 -95.375 45.1875 C-92.66490951 43.43511066 -90.50958174 42.08652725 -87.4375 41.0625 C-89.95716185 59.74473702 -94.52026221 77.62738046 -99.5612793 95.75463867 C-102.4383311 106.61593009 -98.75002848 115.38610884 -93.4375 125.0625 C-91.51633034 124.9771933 -91.51633034 124.9771933 -89.4375 124.0625 C-83.64470169 115.30663349 -78.4375 100.62140995 -78.4375 90.0625 C-77.509375 90.908125 -76.58125 91.75375 -75.625 92.625 C-72.30457775 95.0044976 -70.3946962 95.27864293 -66.375 94.73046875 C-44.42786753 92.17601726 -19.54896717 92.91291628 -1.4375 107.0625 C0.31640625 108.59765625 0.31640625 108.59765625 1.5625 110.0625 C1.4458391 114.49561431 -0.57891283 116.82804324 -3.4375 120.0625 C-13.01782944 127.39137438 -23.90768165 131.81466483 -35.39453125 135.16796875 C-37.38096145 135.75191293 -39.35529187 136.37923796 -41.3125 137.0546875 C-60.30595251 143.18007593 -80.93626363 144.55571214 -100.7421875 145.74609375 C-109.67395431 146.51086448 -118.55818147 147.84271251 -127.4375 149.0625 C-126.98466471 154.9116225 -125.30137181 158.70226091 -122.1875 163.625 C-121.80464844 164.25857422 -121.42179687 164.89214844 -121.02734375 165.54492188 C-119.87453339 167.41679288 -118.66349115 169.2379719 -117.4375 171.0625 C-116.91470459 171.94603149 -116.91470459 171.94603149 -116.38134766 172.84741211 C-114.70119826 175.35356708 -113.19988479 176.8969646 -110.21679688 177.54467773 C-107.55560197 177.69038789 -104.97390835 177.63555236 -102.3125 177.5 C-101.40628906 177.48130859 -100.50007813 177.46261719 -99.56640625 177.44335938 C-95.91601963 177.34331174 -92.92150608 177.22383536 -89.4375 176.0625 C-87.27480001 175.74274597 -85.10711676 175.45634382 -82.9375 175.1875 C-81.57664723 175.00914796 -80.21597762 174.82939423 -78.85546875 174.6484375 C-76.63665733 174.35352276 -74.417792 174.05996507 -72.19775391 173.77441406 C-46.1564787 170.36044933 -14.10134266 162.41881178 3.13671875 141.1171875 C7.8310651 134.70828141 10.14703883 127.54946729 12.5625 120.0625 C12.8925 119.0725 13.2225 118.0825 13.5625 117.0625 C13.68615396 114.15519402 13.74764971 111.28230542 13.75 108.375 C13.76224609 107.59705078 13.77449219 106.81910156 13.78710938 106.01757812 C13.81283328 95.73659153 11.08009486 87.72788758 3.8125 80.265625 C-1.59587355 75.71357727 -7.59953791 74.3617128 -14.4375 73.0625 C-13.71304688 72.15371094 -12.98859375 71.24492188 -12.2421875 70.30859375 C-0.38057036 55.07111979 4.75882086 41.55642242 2.5625 22.0625 C1.28372024 15.64616646 -1.28440874 11.18631181 -6.53515625 7.234375 C-9.72181719 5.27133951 -12.86211118 4.12315219 -16.4375 3.0625 C-17.28755615 2.80871582 -18.1376123 2.55493164 -19.01342773 2.29345703 C-26.70290178 0.17942649 -33.8559745 -0.4453031 -41.8125 -0.375 C-43.6363623 -0.36364014 -43.6363623 -0.36364014 -45.49707031 -0.35205078 C-64.70050425 -0.00760584 -89.15489755 2.67539071 -103.4375 17.0625 Z M-71.4375 105.0625 C-71.87320313 106.25746094 -72.30890625 107.45242187 -72.7578125 108.68359375 C-80.49822218 129.50330547 -80.49822218 129.50330547 -88.4375 135.0625 C-81.7101904 135.27950999 -75.38246093 134.46632687 -68.75 133.375 C-67.65437744 133.19493408 -66.55875488 133.01486816 -65.42993164 132.8293457 C-45.53088507 129.4598218 -25.87222143 125.52549708 -9.4375 113.0625 C-21.26273585 102.34588001 -40.32163154 102.53614988 -55.36523438 102.95166016 C-60.77170584 103.24083759 -66.10924373 104.13005515 -71.4375 105.0625 Z " fill="#030303" transform="translate(169.4375,23.9375)"/>
<path d="M0 0 C1.8984375 1.6953125 1.8984375 1.6953125 2.81640625 4.1484375 C2.94237329 8.05941421 1.2918779 9.70659279 -1.109375 12.64453125 C-14.73358628 26.66945463 -39.17929893 33.70308709 -58.1015625 36.6953125 C-59.7681519 36.71136091 -61.43499602 36.71358626 -63.1015625 36.6953125 C-63.01592041 36.01130371 -62.93027832 35.32729492 -62.84204102 34.62255859 C-62.44562632 31.43892837 -62.05396106 28.25474744 -61.6640625 25.0703125 C-61.52427979 23.93070068 -61.38449707 22.79108887 -61.24047852 21.61694336 C-60.37765151 14.43284848 -59.70296517 7.30571178 -59.41015625 0.07421875 C-59.1015625 -2.3046875 -59.1015625 -2.3046875 -57.1015625 -4.3046875 C-39.20546806 -10.64288761 -16.30210203 -9.41099265 0 0 Z M-49.1015625 4.6953125 C-49.7615625 11.2953125 -50.4215625 17.8953125 -51.1015625 24.6953125 C-29.31098209 19.01574362 -29.31098209 19.01574362 -10.1015625 7.6953125 C-10.1015625 7.0353125 -10.1015625 6.3753125 -10.1015625 5.6953125 C-22.5188285 1.10037707 -36.38534331 1.41370755 -49.1015625 4.6953125 Z " fill="#040404" transform="translate(157.1015625,62.3046875)"/>
</svg>
